<svg xmlns="http://www.w3.org/2000/svg" width="30" height="30" viewBox="0 0 30 30" fill="none">
  <circle cx="15" cy="15" r="15" fill="white"/>
  <path opacity="0.6" d="M29 15C29 22.732 22.732 29 15 29C7.26801 29 1 22.732 1 15C1 7.26801 7.26801 1 15 1C22.732 1 29 7.26801 29 15Z" fill="black"/>
  <path fill-rule="evenodd" clip-rule="evenodd" d="M13.1789 9C14.1152 9 14.7629 9.5195 15.1779 10.2518C15.5384 10.889 15.5722 11.6542 15.5902 12.3536H18.9281C19.2148 12.3536 19.4983 12.406 19.7607 12.5077C20.0232 12.6094 20.2589 12.7581 20.453 12.9443C20.647 13.1306 20.7952 13.3504 20.8881 13.5898C20.981 13.8292 21.0167 14.083 20.9928 14.3353L20.7435 16.9761C20.6429 18.043 20.0918 19.0377 19.1995 19.7626C18.3072 20.4876 17.139 20.89 15.9265 20.89H14.8824C13.7007 20.892 12.5596 20.5095 11.677 19.8156C11.5831 19.7421 11.472 19.6877 11.3515 19.6563C11.2311 19.6249 11.1044 19.6173 10.9803 19.6339C10.7937 19.6585 10.6054 19.6707 10.4168 19.6705C9.65172 19.6705 9.01644 19.2925 8.60489 18.69C8.20439 18.1047 8 17.2968 8 16.3169C8 15.3371 8.20508 14.5298 8.60489 13.9444C9.01644 13.3414 9.65172 12.9633 10.4168 12.9633C10.6108 12.9633 10.8166 12.9938 11.0224 13.045C11.3387 12.3133 11.5638 11.5591 11.4574 10.7676C11.3387 9.88657 12.1542 9 13.1789 9Z" fill="white"/>
</svg>