<svg xmlns="http://www.w3.org/2000/svg" width="30" height="30" viewBox="0 0 30 30" fill="none">
  <circle cx="15" cy="15" r="15" fill="#CCCCCC"/>
  <path d="M28 15C28 22.1797 22.1797 28 15 28C7.8203 28 2 22.1797 2 15C2 7.8203 7.8203 2 15 2C22.1797 2 28 7.8203 28 15Z" fill="black"/>
  <path d="M19.1827 12L20 13.0411L15.5459 18.7116C15.4745 18.803 15.3896 18.8755 15.2961 18.925C15.2027 18.9745 15.1024 19 15.0012 19C14.8999 19 14.7996 18.9745 14.7062 18.925C14.6127 18.8755 14.5278 18.803 14.4564 18.7116L10 13.0411L10.8173 12.001L15 17.3231L19.1827 12Z" fill="white"/>
</svg>