<?xml version="1.0" encoding="UTF-8"?>
<svg xmlns="http://www.w3.org/2000/svg"
     width="38.34" height="38.34"
     viewBox="0 0 38.34 38.34"
     fill="none">
    <g opacity="0.6">
        <circle cx="15" cy="15" r="15" fill="#CCCCCC"/>
        <path
                d="M29 15C29 22.732 22.732 29 15 29C7.26801 29 1 22.732 1 15C1 7.26801 7.26801 1 15 1C22.732 1 29 7.26801 29 15Z"
                fill="black"
        />
        <path
                d="M19.1827 18L20 16.9589L15.5459 11.2884C15.4745 11.197 15.3896 11.1245 15.2961 11.075C15.2027 11.0255 15.1024 11 15.0012 11C14.8999 11 14.7996 11.0255 14.7062 11.075C14.6127 11.1245 14.5278 11.197 14.4564 11.2884L10 16.9589L10.8173 18L15 12.6769L19.1827 18Z"
                fill="white"
        />
    </g>
</svg>
