<?xml version="1.0" encoding="UTF-8"?>
<svg xmlns="http://www.w3.org/2000/svg"
     width="38.34" height="38.34"
     viewBox="0 0 38.34 38.34"
     fill="none">
    <g opacity="0.6">
        <circle cx="15" cy="15" r="15" fill="#CCCCCC"/>
        <path
                d="M29 15C29 22.732 22.732 29 15 29C7.26801 29 1 22.732 1 15C1 7.26801 7.26801 1 15 1C22.732 1 29 7.26801 29 15Z"
                fill="black"
        />
        <path
                d="M19.1827 12L20 13.0411L15.5459 18.7116C15.4745 18.803 15.3896 18.8755 15.2961 18.925C15.2027 18.9745 15.1024 19 15.0012 19C14.8999 19 14.7996 18.9745 14.7062 18.925C14.6127 18.8755 14.5278 18.803 14.4564 18.7116L10 13.0411L10.8173 12.001L15 17.3231L19.1827 12Z"
                fill="white"
        />
    </g>
</svg>
