<svg width="15" height="15" viewBox="0 0 15 15" fill="none" xmlns="http://www.w3.org/2000/svg">
<path d="M3.87 2.29375L12.35 7.06438C12.4272 7.1079 12.4915 7.17118 12.5363 7.24772C12.581 7.32427 12.6046 7.41134 12.6046 7.5C12.6046 7.58867 12.581 7.67573 12.5363 7.75228C12.4915 7.82883 12.4272 7.89211 12.35 7.93563L3.87 12.7063C3.79389 12.749 3.7079 12.7711 3.62059 12.7704C3.53328 12.7696 3.44769 12.746 3.37234 12.7019C3.297 12.6577 3.23452 12.5947 3.19112 12.5189C3.14773 12.4431 3.12493 12.3573 3.125 12.27V2.73C3.12504 2.64274 3.14792 2.55701 3.19136 2.48133C3.2348 2.40565 3.29729 2.34266 3.37261 2.29861C3.44794 2.25457 3.53349 2.231 3.62074 2.23026C3.708 2.22952 3.79393 2.251 3.87 2.29375Z" fill="black"/>
</svg>
