<svg xmlns="http://www.w3.org/2000/svg" width="30" height="30" viewBox="0 0 30 30" fill="none">
  <g opacity="0.6">
    <circle cx="15" cy="15" r="15" fill="#CCCCCC"/>
    <path d="M29 15C29 22.732 22.732 29 15 29C7.26801 29 1 22.732 1 15C1 7.26801 7.26801 1 15 1C22.732 1 29 7.26801 29 15Z" fill="black"/>
    <path fill-rule="evenodd" clip-rule="evenodd" d="M12.8288 10.6242C12.9455 11.4922 12.786 12.3973 12.4311 13.2097C12.0382 14.1088 11.5161 15.0822 11.4512 16.0502C11.3967 16.8656 11.6059 17.8305 12.1638 18.4911C12.7749 19.2145 13.7783 19.6737 14.8824 19.6737H15.9265C16.7926 19.6738 17.6271 19.3863 18.2644 18.8683C18.9018 18.3503 19.2954 17.6396 19.3673 16.8772L19.6166 14.235C19.6245 14.1509 19.6126 14.0663 19.5816 13.9865C19.5506 13.9066 19.5012 13.8334 19.4365 13.7713C19.3718 13.7092 19.2932 13.6597 19.2057 13.6258C19.1182 13.5919 19.0237 13.5744 18.9281 13.5745H15.2504C14.9767 13.5741 14.7143 13.4783 14.5201 13.3079C14.326 13.1375 14.216 12.9062 14.214 12.6644C14.2085 12.0728 14.2506 11.3427 13.9426 10.7981C13.6664 10.3101 13.4081 10.2199 13.1789 10.2199C12.9717 10.2199 12.806 10.4596 12.8288 10.6242ZM13.1789 9C14.1152 9 14.7629 9.51966 15.1779 10.2522C15.5384 10.8896 15.5722 11.655 15.5902 12.3546H18.9281C19.2148 12.3546 19.4983 12.4071 19.7607 12.5088C20.0232 12.6105 20.2589 12.7592 20.453 12.9455C20.647 13.1318 20.7952 13.3517 20.8881 13.5912C20.981 13.8307 21.0167 14.0846 20.9928 14.3369L20.7435 16.9785C20.6429 18.0458 20.0918 19.0407 19.1995 19.7659C18.3072 20.4911 17.139 20.8936 15.9265 20.8936H14.8824C14.2274 20.8951 13.5789 20.7781 12.9772 20.5496C12.3754 20.3211 11.833 19.9861 11.3835 19.5652C11.0679 19.6379 10.743 19.6744 10.4168 19.6737C9.65172 19.6737 9.01644 19.2956 8.60489 18.693C8.20439 18.1074 8 17.2993 8 16.3191C8 15.339 8.20508 14.5314 8.60489 13.9459C9.01644 13.3427 9.65172 12.9645 10.4168 12.9645C10.6109 12.9645 10.8166 12.995 11.0224 13.0463C11.3387 12.3143 11.5638 11.5599 11.4574 10.7682C11.3387 9.88684 12.1542 9 13.1789 9ZM10.5522 14.199C10.2173 14.138 9.95486 14.3308 9.78775 14.576C9.56264 14.9053 9.38104 15.4689 9.38104 16.3191C9.38104 17.1694 9.56264 17.7336 9.78706 18.0629C10.0011 18.3752 10.229 18.4539 10.4168 18.4539C10.461 18.4539 10.5047 18.4529 10.548 18.4508C10.1779 17.714 10.0191 16.7796 10.0729 15.9782C10.1054 15.4872 10.3222 14.8083 10.5522 14.199Z" fill="white"/>
  </g>
</svg>