<svg xmlns="http://www.w3.org/2000/svg" width="30" height="30" viewBox="0 0 30 30" fill="none">
  <circle cx="15" cy="15" r="15" fill="#CCCCCC"/>
  <path d="M28 15C28 22.1797 22.1797 28 15 28C7.8203 28 2 22.1797 2 15C2 7.8203 7.8203 2 15 2C22.1797 2 28 7.8203 28 15Z" fill="black"/>
  <path fill-rule="evenodd" clip-rule="evenodd" d="M15.3146 21.6609L15.307 21.6621L15.258 21.6835L15.2442 21.6859L15.2345 21.6835L15.1855 21.6621C15.1781 21.6601 15.1726 21.6611 15.1689 21.6652L15.1662 21.6713L15.1544 21.9323L15.1579 21.9445L15.1648 21.9524L15.2366 21.9976L15.247 22L15.2553 21.9976L15.3271 21.9524L15.3354 21.9427L15.3381 21.9323L15.3264 21.6719C15.3245 21.6654 15.3206 21.6617 15.3146 21.6609ZM15.4976 21.592L15.4887 21.5932L15.3609 21.6499L15.354 21.656L15.3519 21.6627L15.3644 21.925L15.3678 21.9323L15.3733 21.9366L15.5121 21.9933C15.5209 21.9953 15.5275 21.9937 15.5322 21.9884L15.5349 21.9799L15.5114 21.6054C15.5091 21.5981 15.5045 21.5936 15.4976 21.592ZM15.0039 21.5932C15.0009 21.5916 14.9972 21.591 14.9938 21.5917C14.9903 21.5924 14.9872 21.5942 14.9853 21.5968L14.9811 21.6054L14.9576 21.9799C14.9581 21.9872 14.962 21.9921 14.9694 21.9945L14.9797 21.9933L15.1185 21.9366L15.1254 21.9317L15.1282 21.925L15.1399 21.6627L15.1379 21.6554L15.131 21.6493L15.0039 21.5932Z" fill="white"/>
  <path fill-rule="evenodd" clip-rule="evenodd" d="M12.8288 10.6242C12.9455 11.4922 12.786 12.3973 12.4311 13.2097C12.0382 14.1088 11.5161 15.0822 11.4512 16.0502C11.3967 16.8656 11.6059 17.8305 12.1638 18.4911C12.7749 19.2145 13.7783 19.6737 14.8824 19.6737H15.9265C16.7926 19.6738 17.6271 19.3863 18.2644 18.8683C18.9018 18.3503 19.2954 17.6396 19.3673 16.8772L19.6166 14.235C19.6245 14.1509 19.6126 14.0663 19.5816 13.9865C19.5506 13.9066 19.5012 13.8334 19.4365 13.7713C19.3718 13.7092 19.2932 13.6597 19.2057 13.6258C19.1182 13.5919 19.0237 13.5744 18.9281 13.5745H15.2504C14.9767 13.5741 14.7143 13.4783 14.5201 13.3079C14.326 13.1375 14.216 12.9062 14.214 12.6644C14.2085 12.0728 14.2506 11.3427 13.9426 10.7981C13.6664 10.3101 13.4081 10.2199 13.1789 10.2199C12.9717 10.2199 12.806 10.4596 12.8288 10.6242ZM13.1789 9C14.1152 9 14.7629 9.51966 15.1779 10.2522C15.5384 10.8896 15.5722 11.655 15.5902 12.3546H18.9281C19.2148 12.3546 19.4983 12.4071 19.7607 12.5088C20.0232 12.6105 20.2589 12.7592 20.453 12.9455C20.647 13.1318 20.7952 13.3517 20.8881 13.5912C20.981 13.8307 21.0167 14.0846 20.9928 14.3369L20.7435 16.9785C20.6429 18.0458 20.0918 19.0407 19.1995 19.7659C18.3072 20.4911 17.139 20.8936 15.9265 20.8936H14.8824C14.2274 20.8951 13.5789 20.7781 12.9772 20.5496C12.3754 20.3211 11.833 19.9861 11.3835 19.5652C11.0679 19.6379 10.743 19.6744 10.4168 19.6737C9.65172 19.6737 9.01644 19.2956 8.60489 18.693C8.20439 18.1074 8 17.2993 8 16.3191C8 15.339 8.20508 14.5314 8.60489 13.9459C9.01644 13.3427 9.65172 12.9645 10.4168 12.9645C10.6108 12.9645 10.8166 12.995 11.0224 13.0463C11.3387 12.3143 11.5638 11.5599 11.4574 10.7682C11.3387 9.88684 12.1542 9 13.1789 9ZM10.5522 14.199C10.2173 14.138 9.95486 14.3308 9.78775 14.576C9.56264 14.9053 9.38104 15.4689 9.38104 16.3191C9.38104 17.1694 9.56264 17.7336 9.78706 18.0629C10.0011 18.3752 10.229 18.4539 10.4168 18.4539C10.461 18.4539 10.5047 18.4529 10.548 18.4508C10.1779 17.714 10.0191 16.7796 10.0729 15.9782C10.1054 15.4872 10.3222 14.8083 10.5522 14.199Z" fill="white"/>
</svg>