<?xml version="1.0" encoding="UTF-8"?>
<svg version="1.1" xmlns="http://www.w3.org/2000/svg" width="2000" height="1000">
<path d="M0 0 C0.99 0.33 1.98 0.66 3 1 C4.89588899 1.09354061 6.79492063 1.12792747 8.69311523 1.12939453 C9.86120224 1.13254669 11.02928925 1.13569885 12.23277283 1.13894653 C13.49529373 1.1369223 14.75781464 1.13489807 16.05859375 1.1328125 C17.35442886 1.13376923 18.65026398 1.13472595 19.98536682 1.13571167 C22.72829378 1.1371857 25.47118816 1.13504389 28.21411133 1.13037109 C31.72575957 1.12467961 35.23733128 1.12795098 38.74897671 1.13394356 C42.10218848 1.13843199 45.45537981 1.13528638 48.80859375 1.1328125 C50.06909042 1.13483673 51.3295871 1.13686096 52.62828064 1.13894653 C53.79951981 1.13579437 54.97075897 1.13264221 56.17749023 1.12939453 C57.20768784 1.12859894 58.23788544 1.12780334 59.29930115 1.12698364 C61.71037613 1.01361777 63.67943428 0.59233955 66 0 C68.34087842 0.27539746 70.67402489 0.6186926 73 1 C74.56069502 1.22144997 76.12334489 1.42948061 77.6875 1.625 C78.77611328 1.76808594 78.77611328 1.76808594 79.88671875 1.9140625 C81.97560058 2.1058307 81.97560058 2.1058307 83.828125 1.5 C86.97240878 0.77613611 89.85526609 1.12543606 93.0625 1.375 C94.90521484 1.51035156 94.90521484 1.51035156 96.78515625 1.6484375 C100 2 100 2 103 3 C104.16789062 3.20689453 104.16789062 3.20689453 105.359375 3.41796875 C108.236778 4.05218923 110.59950013 5.03089602 113.25 6.3125 C114.12140625 6.72113281 114.9928125 7.12976563 115.890625 7.55078125 C118 9 118 9 118.6875 11.11328125 C118.790625 11.73589844 118.89375 12.35851562 119 13 C119.5775 13.28875 120.155 13.5775 120.75 13.875 C126.52335164 16.76167582 128.9609815 22.55828575 130.9375 28.375 C131.45431634 29.81644596 131.97124627 31.2578512 132.48828125 32.69921875 C132.74303223 33.42415527 132.9977832 34.1490918 133.26025391 34.89599609 C138.20644399 48.96407073 143.94892993 62.70357645 149.69264221 76.45907593 C151.39489528 80.53821045 153.07954402 84.62418996 154.75390625 88.71484375 C158.64288954 98.18907677 162.61165121 107.46326226 167.33984375 116.55078125 C169.74096286 121.53945931 171.68628536 126.68356956 173.60424805 131.87451172 C175.09755109 135.87775888 176.79628867 139.32908087 179 143 C179.78555724 144.96875846 180.49895382 146.95783002 181.21826172 148.95166016 C182.43647491 152.14366786 183.99688392 155.15632749 185.5625 158.1875 C193.18324221 173.23482539 200.34928394 188.30253055 206.28125 204.10009766 C209.85527916 213.54748045 214.12793829 222.68278783 218.34033203 231.85644531 C221.07118063 237.84161479 223.52380174 243.83375385 225.79296875 250.0078125 C227.16759117 253.41545255 228.80487327 256.61542013 230.5 259.875 C239 276.4286105 239 276.4286105 239 284 C239.66 284 240.32 284 241 284 C241.25394531 284.68707031 241.50789063 285.37414062 241.76953125 286.08203125 C242.11371094 286.98308594 242.45789062 287.88414062 242.8125 288.8125 C243.14894531 289.70582031 243.48539063 290.59914063 243.83203125 291.51953125 C244.99292779 293.98498041 246.07164332 295.1405132 248 297 C248.9453106 298.57551767 249.8356848 300.18453227 250.6875 301.8125 C252.7218311 305.64837804 254.82144344 309.42496115 257.02392578 313.16699219 C260.48233242 319.06270561 263.43888642 324.98713757 265.89453125 331.37890625 C267.04592595 334.10889155 268.4592601 336.47093182 270 339 C271.29264927 341.49158836 272.56421204 343.98651452 273.8125 346.5 C274.1636084 347.20415039 274.5147168 347.90830078 274.87646484 348.63378906 C277.54281821 354.01018662 280.07252571 359.44199252 282.5625 364.90234375 C285.28385374 370.76656525 288.22988927 376.51937823 291.16015625 382.28125 C291.49917969 382.9515625 291.83820313 383.621875 292.1875 384.3125 C292.46980469 384.86550781 292.75210937 385.41851563 293.04296875 385.98828125 C293.85231518 387.68956049 294.58725323 389.42593524 295.3046875 391.16796875 C297.19906073 395.62125214 299.56054992 399.79000818 301.9375 404 C302.36740234 404.76828125 302.79730469 405.5365625 303.24023438 406.328125 C305.80200681 410.89966428 308.39419358 415.45344217 311 420 C311.33 420 311.66 420 312 420 C311.96519531 418.30037109 311.96519531 418.30037109 311.9296875 416.56640625 C311.81818149 408.02911696 311.90626205 399.55107476 312.515625 391.03125 C312.56417633 390.33515121 312.61272766 389.63905243 312.66275024 388.92185974 C312.90581763 385.48033072 313.16952276 382.04337746 313.46435547 378.60571289 C314.03526252 370.86901996 313.88914526 363.57513486 313.06640625 355.859375 C311.7210349 343.12515948 311.73332813 330.44592551 311.79418945 317.65161133 C311.81242738 313.70322135 311.81469823 309.75506841 311.81445312 305.80664062 C311.83118663 294.03149332 311.964398 282.28301872 312.50390625 270.51953125 C313.13386192 256.71578271 313.15582713 242.92135193 313.12877274 229.10548019 C313.12494535 226.96949962 313.12291514 224.8335236 313.12130737 222.69754028 C313.10185207 200.66519743 312.91585646 178.63584882 312.59383392 156.605896 C312.56252196 154.43901958 312.5327519 152.27212615 312.50323486 150.10522461 C312.44778302 146.08955408 312.38300005 142.07409518 312.31640625 138.05859375 C312.2913224 136.26040443 312.2913224 136.26040443 312.26573181 134.42588806 C312.24579666 133.33844803 312.22586151 132.251008 312.20532227 131.13061523 C312.18977798 130.18242416 312.1742337 129.23423309 312.15821838 128.25730896 C312.142605 125.96555942 312.142605 125.96555942 311 124 C310.90406215 122.59221666 310.86934499 121.18001191 310.86628723 119.76896667 C310.86202225 118.88154282 310.85775726 117.99411896 310.85336304 117.07980347 C310.85381622 116.10367096 310.85426941 115.12753845 310.85473633 114.12182617 C310.84969841 112.58261757 310.84969841 112.58261757 310.84455872 111.01231384 C310.83502731 107.6058533 310.8331044 104.19944181 310.83203125 100.79296875 C310.82881982 98.43125895 310.82545584 96.06954934 310.82194519 93.70783997 C310.81594818 88.75045307 310.81410584 83.79308363 310.81469727 78.83569336 C310.81479884 72.48011078 310.80115436 66.12464005 310.78392506 59.76908398 C310.77281082 54.88865138 310.77077789 50.00824585 310.77130699 45.1278019 C310.77012571 42.78462654 310.76569566 40.44145051 310.75797462 38.09828758 C310.74818797 34.82089776 310.75104784 31.54375108 310.75708008 28.26635742 C310.75146057 27.29629761 310.74584106 26.32623779 310.74005127 25.32678223 C310.78735876 15.22257285 310.78735876 15.22257285 314.79492188 11.19702148 C320.90473638 6.94334447 325.18891372 6.30320186 332.5 7.0625 C333.45326172 7.1354126 334.40652344 7.2083252 335.38867188 7.28344727 C337.32909559 7.43234919 339.26863463 7.59329687 341.20703125 7.76660156 C343.80579179 7.98377071 346.39477471 8.13206324 349 8.2421875 C349.76376953 8.27562256 350.52753906 8.30905762 351.31445312 8.34350586 C352.03568359 8.37452393 352.75691406 8.40554199 353.5 8.4375 C358.41980504 8.66508941 362.37644184 9.32640219 367 11 C369.32694964 11.37531446 371.65976685 11.71917202 374 12 C376.41929342 16.26934132 375.8818373 19.57947437 375.296875 24.23828125 C374.73056099 29.50649187 374.35259697 35.14179818 375.52940369 40.33724976 C376.02189082 43.12386367 375.9427421 45.33677843 375.66235352 48.14697266 C374.08494019 66.21728988 373.81303169 84.20067519 373.83984375 102.3359375 C373.84157215 103.61871834 373.84330055 104.90149918 373.84508133 106.22315216 C373.85913095 114.24751893 373.8876087 122.27177723 373.92095947 130.29608154 C373.97061692 142.33015644 374.00234945 154.3642886 374.02734375 166.3984375 C374.03031715 167.67732786 374.03329056 168.95621822 374.03635406 170.27386284 C374.07285014 188.50771943 373.80638094 206.68817727 373.10562134 224.90759277 C372.85202223 232.33252914 372.8487909 239.75912238 372.875 247.1875 C372.87588623 247.95596252 372.87677246 248.72442505 372.87768555 249.51617432 C372.89074364 259.31953876 373.07312228 269.08387148 373.64624023 278.87280273 C374.04396714 286.14861875 374.00854803 293.40817311 373.953125 300.69186401 C373.81393151 313.78831803 373.81393151 313.78831803 375 326.8125 C376.10657641 334.75458933 376.11984996 342.61661341 376.0625 350.625 C375.95678473 365.6566514 376.10779207 380.67587556 376.37130737 395.70574951 C376.41518823 398.22105914 376.45730244 400.73640026 376.49758911 403.25177002 C376.55514572 406.82418986 376.61847859 410.3964608 376.68359375 413.96875 C376.70030121 415.03423065 376.71700867 416.0997113 376.73422241 417.19747925 C376.84302016 422.71551884 377.15547149 428.14076242 377.75721741 433.62649536 C378.15107007 437.47689962 378.32348145 441.33373821 378.5 445.19921875 C378.54060547 446.03733597 378.58121094 446.87545319 378.62304688 447.7389679 C378.75111834 450.38836933 378.87582715 453.03791322 379 455.6875 C379.16489854 459.17065953 379.33158114 462.65372768 379.5 466.13671875 C379.56078735 467.40077545 379.56078735 467.40077545 379.62280273 468.69036865 C379.93750248 475.08671892 380.34728834 481.47236109 380.81640625 487.85913086 C381.05052137 491.86430506 381.01220268 495.84183974 380.96484375 499.8515625 C381.00380075 503.34037815 381.28384536 506.77210795 381.5625 510.25 C382.1938005 519.08397715 381.93613329 527.90679885 381.6875 536.75 C381.66177414 537.82247986 381.66177414 537.82247986 381.63552856 538.91662598 C381.58384251 540.98134304 381.51873092 543.04518922 381.44921875 545.109375 C381.41143311 546.31561523 381.37364746 547.52185547 381.3347168 548.76464844 C381.00616169 551.94044144 380.52727672 554.20174159 379 557 C371.84874098 559.81874443 363.97072345 559.51663288 356.375 559.75 C355.09753906 559.80542969 353.82007813 559.86085938 352.50390625 559.91796875 C327.62111558 560.74991616 327.62111558 560.74991616 318.625 552.9375 C317 551 317 551 317 549 C316.34 549 315.68 549 315 549 C314.73058594 548.00484375 314.46117187 547.0096875 314.18359375 545.984375 C313.03872566 541.97683322 311.57434224 538.13077328 310.0625 534.25 C307.93353427 528.7035514 306.17537637 523.20315816 304.70703125 517.44140625 C303.77895621 514.23672723 302.44522236 511.31618442 301.03125 508.30078125 C299.90999324 505.79918946 298.9790683 503.2708921 298.0625 500.6875 C296.30692901 495.74563679 294.32567264 490.93090125 292.24609375 486.1171875 C291.25981474 483.64994409 290.42020151 481.22677875 289.6171875 478.69921875 C288.041788 473.89427536 285.9289579 469.46169583 283.6875 464.9375 C280.164306 457.68609241 277.13847738 450.41865891 274.484375 442.80859375 C273.07391236 438.9791064 271.24453222 435.40489606 269.39160156 431.77319336 C266.795211 426.59908803 264.41440092 421.32332029 262 416.0625 C261.49210937 414.95970703 260.98421875 413.85691406 260.4609375 412.72070312 C258.97056683 409.48201302 257.48466152 406.24131062 256 403 C255.53787109 401.99469238 255.07574219 400.98938477 254.59960938 399.95361328 C252.44912916 395.25680519 250.40111685 390.55417365 248.5 385.75 C245.7595374 379.285319 242.39699198 373.31876592 238.875 367.25 C232.23983684 355.79289787 226.75719302 343.94627303 221.32080078 331.88623047 C219.50674923 327.92214222 217.59126853 324.01542665 215.625 320.125 C215.30490967 319.49062012 214.98481934 318.85624023 214.6550293 318.20263672 C213.27114906 315.47272099 211.87105642 312.75160361 210.4609375 310.03515625 C204.13332932 297.70139592 198.98522406 284.79849152 194.078125 271.84375 C192.44565637 267.53781826 190.73529382 263.26537869 189 259 C188.62101562 258.06671875 188.24203125 257.1334375 187.8515625 256.171875 C185.22317937 249.77670076 182.40171218 243.4970112 179.47265625 237.234375 C178.04589047 234.10078863 176.72936896 230.9411998 175.4375 227.75 C173.99693201 224.21991807 172.46040752 220.95484586 170.5 217.6875 C168.20631747 213.76673642 166.84354731 209.69114574 165.5 205.375 C163.99915477 200.58167556 162.46136526 196.57178465 159.25 192.66796875 C157.67733099 190.56943854 156.6309207 188.36433109 155.5 186 C153.94962321 182.77127882 152.31760711 179.88014482 150.1875 177 C148 174 148 174 148 172 C147.34 172 146.68 172 146 172 C144.35779345 169.59004706 142.84973401 167.19685209 141.375 164.6875 C140.95476562 163.99720703 140.53453125 163.30691406 140.1015625 162.59570312 C137 157.38447392 137 157.38447392 137 154 C136.34 154 135.68 154 135 154 C134.32845067 152.71086513 133.66291141 151.41859796 133 150.125 C132.62875 149.40570313 132.2575 148.68640625 131.875 147.9453125 C131 146 131 146 131 144 C130.34 144 129.68 144 129 144 C128.73316406 143.2678125 128.46632813 142.535625 128.19140625 141.78125 C126.67789404 138.2480674 124.57712013 135.38827441 122.33984375 132.28125 C120.89878228 129.82766429 120.3993333 127.80026316 120 125 C119.01 124.67 118.02 124.34 117 124 C115.3125 121.4375 115.3125 121.4375 114 119 C112.26316168 120.73683832 112.78815333 123.13699425 112.71875 125.50390625 C112.68136719 126.63763672 112.64398437 127.77136719 112.60546875 128.93945312 C112.57066406 130.13505859 112.53585937 131.33066406 112.5 132.5625 C112.12356738 145.20087677 112.12356738 145.20087677 111.40625 149.83984375 C110.75078012 154.37232295 111.28192631 158.82697039 111.62524414 163.37298584 C112.2215638 171.98892073 111.82856749 180.56647402 111.5 189.1875 C111.40770433 191.66764424 111.31779786 194.14777022 111.23498535 196.62825012 C111.18393895 198.15326147 111.12754641 199.67810693 111.06481934 201.2026825 C110.93680098 204.98301034 111.15150754 208.32124338 112 212 C112.31014872 215.51415829 112.42351194 219.03775127 112.5625 222.5625 C112.6042334 223.59866455 112.6459668 224.6348291 112.68896484 225.70239258 C112.99786139 234.19704771 113.10669196 242.68757682 113.125 251.1875 C113.12959229 252.38640869 113.13418457 253.58531738 113.13891602 254.82055664 C113.13690186 255.94582764 113.1348877 257.07109863 113.1328125 258.23046875 C113.13168457 259.22457764 113.13055664 260.21868652 113.12939453 261.24291992 C113 264 113 264 112.42919922 266.4855957 C111.90290888 269.56879492 112.42407514 271.93321216 113 275 C113.28602594 279.23671979 113.41998542 283.47671453 113.55761719 287.72070312 C113.62436359 289.73083379 113.70243866 291.74031083 113.78125 293.75 C114.02440187 300.93013175 114.00024283 307.87827106 113 315 C112.34 315 111.68 315 111 315 C111 315.99 111 316.98 111 318 C111.66 318 112.32 318 113 318 C112.98259766 319.90072266 112.98259766 319.90072266 112.96484375 321.83984375 C112.95545581 323.53906101 112.94635669 325.23827989 112.9375 326.9375 C112.92912109 327.76830078 112.92074219 328.59910156 112.91210938 329.45507812 C112.89657783 333.44668561 112.98734321 337.32483963 113.50390625 341.28515625 C114.39963958 348.50259298 114.04077939 355.79315351 113.9609375 363.05078125 C113.90569005 371.25502715 114.36250097 378.96387029 116 387 C116.24971689 389.75877709 116.43864093 392.51728382 116.62109375 395.28125 C116.88524993 398.00766968 116.88524993 398.00766968 117.99609375 400.41015625 C121.773808 410.15577706 120.97369127 425.86574502 119.375 435.9375 C118.78904347 439.06555544 118.78904347 439.06555544 119.93701172 442.25073242 C120.98714122 445.95464579 121.39647441 449.21665017 121.6328125 453.05078125 C121.67437469 453.70293106 121.71593689 454.35508087 121.75875854 455.0269928 C121.88922299 457.12175148 122.00757335 459.21697351 122.125 461.3125 C122.21211787 462.75928468 122.29935802 464.206062 122.38671875 465.65283203 C122.90332481 474.51761202 123.16431434 483.33260382 122.875 492.2109375 C122.97636906 495.28368722 123.30825848 497.71267641 123.96484375 500.67578125 C125.26823772 506.70239938 125.41291111 512.66476159 125.5625 518.8125 C125.62263024 521.00661412 125.68629977 523.20063477 125.75390625 525.39453125 C125.77783447 526.35206299 125.8017627 527.30959473 125.82641602 528.29614258 C125.99665277 530.94786142 126.4516211 533.40417546 127 536 C127.04146733 537.72866938 127.04184352 539.45883969 127 541.1875 C126.84990859 544.73437181 126.84990859 544.73437181 128 548 C127.3276948 553.29440346 127.3276948 553.29440346 126 556 C122.625 557.75 122.625 557.75 119 559 C118.29875 559.7425 117.5975 560.485 116.875 561.25 C115.946875 562.11625 115.946875 562.11625 115 563 C112.75 562.75 112.75 562.75 110 562 C104.85615261 561.61897427 100.65179285 562.27136761 95.6328125 563.44921875 C86.27265229 565.45525026 76.86275083 565.6711572 67.32263184 565.96710205 C62.09960541 566.12926466 56.87801895 566.32928755 51.65625 566.52734375 C50.63674255 566.56516968 49.61723511 566.60299561 48.5668335 566.64196777 C40.6083019 566.94794684 32.68718672 567.45874842 24.75 568.125 C16.65902022 568.80183799 8.70123102 569.09811815 0.58447266 568.96142578 C-5.35856548 568.89752215 -11.08990292 569.4863932 -16.97290039 570.28466797 C-23.3260654 571.12286438 -29.59497203 571.20050522 -36 571 C-36.4021875 570.0409375 -36.4021875 570.0409375 -36.8125 569.0625 C-37.88667752 566.66868314 -37.88667752 566.66868314 -41 566 C-41 565.01 -41 564.02 -41 563 C-42.32 562.34 -43.64 561.68 -45 561 C-45.04673582 553.04489586 -45.08207551 545.08985093 -45.10362434 537.1346426 C-45.11397667 533.43907696 -45.12797541 529.74360656 -45.15087891 526.0480957 C-45.17291765 522.46892958 -45.18463253 518.88985392 -45.18975449 515.31062508 C-45.19514409 513.30865108 -45.21070459 511.30671251 -45.22659302 509.30479431 C-45.22752863 501.49983707 -44.62940794 494.06699897 -43.43063354 486.37391663 C-42.89392203 482.16890306 -42.92815237 478.10497876 -43.125 473.87890625 C-43 471 -43 471 -42.0390625 467.39453125 C-40.60844796 462.02215733 -40.53236144 456.65887716 -40.375 451.125 C-40.33632812 449.97257812 -40.29765625 448.82015625 -40.2578125 447.6328125 C-39.92224109 436.31926221 -39.93654896 425.00520708 -40.03662109 413.68798828 C-40.11817554 402.34743593 -40.11817554 402.34743593 -39.5 396.7109375 C-38.61543052 388.38539445 -38.9336591 379.98553296 -39 371.625 C-39.02667531 368.2213573 -39.04659383 364.81777061 -39.0625 361.4140625 C-39.07079834 360.64317291 -39.07909668 359.87228333 -39.08764648 359.07803345 C-39.10515087 355.23662045 -38.8596367 351.74000953 -38 348 C-37.69075428 344.77774045 -37.57544878 341.54625647 -37.4375 338.3125 C-37.39359131 337.32644775 -37.34968262 336.34039551 -37.30444336 335.32446289 C-36.97778481 326.92658941 -36.99306109 318.5474476 -37.0484314 310.14596558 C-37.16061384 292.53575539 -36.04890091 275.42613359 -33.3671875 258.015625 C-32.91411567 254.29465207 -32.97472732 250.68966137 -33.05859375 246.94921875 C-32.73648649 230.73648649 -32.73648649 230.73648649 -30 228 C-29.76924713 225.6947466 -29.60380513 223.3829149 -29.46484375 221.0703125 C-29.42186661 220.36534637 -29.37888947 219.66038025 -29.33460999 218.93405151 C-29.24417832 217.43273074 -29.15606975 215.93126857 -29.07006836 214.4296875 C-28.94002352 212.16887118 -28.80170105 209.90868203 -28.66210938 207.6484375 C-28.23458612 200.52331266 -27.88747372 193.43409111 -28.06469727 186.29248047 C-28 184 -28 184 -27.52125549 181.67190552 C-27.01472489 179.07547838 -26.76198556 176.59530615 -26.59521484 173.95703125 C-26.53200043 172.97831055 -26.46878601 171.99958984 -26.40365601 170.99121094 C-26.3400589 169.94223633 -26.27646179 168.89326172 -26.2109375 167.8125 C-26.14339264 166.7184082 -26.07584778 165.62431641 -26.0062561 164.49707031 C-25.86487783 162.18061787 -25.72547069 159.86404441 -25.58789062 157.54736328 C-25.3774051 154.04007574 -25.15380735 150.53378279 -24.9296875 147.02734375 C-24.26537658 136.20761341 -23.76302877 125.78607396 -25 115 C-25.2445852 111.25232362 -25.40791968 107.50237381 -25.5625 103.75 C-25.60568359 102.71439941 -25.64886719 101.67879883 -25.69335938 100.61181641 C-26.09300841 89.76895735 -26.05932999 78.92913189 -25.96313477 68.08105469 C-25.95886978 67.39715668 -25.9546048 66.71325867 -25.95021057 66.00863647 C-25.93829845 64.14814273 -25.92053138 62.28768907 -25.90234375 60.42724609 C-25.93574847 56.98444504 -25.93574847 56.98444504 -26.4934082 53.54614258 C-27.03455412 49.75812114 -27.16165897 46.05512628 -27.16796875 42.23828125 C-27.17129715 41.52520309 -27.17462555 40.81212494 -27.17805481 40.07743835 C-27.18308229 38.58247517 -27.18546444 37.08750093 -27.18530273 35.5925293 C-27.1875041 33.30824548 -27.20574384 31.02443397 -27.22460938 28.74023438 C-27.22754125 27.28125164 -27.22952742 25.82226663 -27.23046875 24.36328125 C-27.23457764 23.04626221 -27.23868652 21.72924316 -27.24291992 20.37231445 C-27.01928139 17.26767214 -26.65323445 15.5828461 -25 13 C-24.34 13 -23.68 13 -23 13 C-22.95875 12.4225 -22.9175 11.845 -22.875 11.25 C-21.5266105 7.78271271 -19.1758638 6.79765875 -16 5 C-14.00779443 4.31039038 -12.00894394 3.63920943 -10 3 C-9.34 2.34 -8.68 1.68 -8 1 C-6.00043389 0.95834237 -3.99956611 0.95834237 -2 1 C-1.34 0.67 -0.68 0.34 0 0 Z " fill="#FEFEFE" transform="translate(1104,206)"/>
<path d="M0 0 C3.6691892 0.65306412 7.33453513 1.32636734 11 2 C11.79889648 2.1448584 12.59779297 2.2897168 13.42089844 2.43896484 C16.13585187 2.93273001 18.84921733 3.43464115 21.5625 3.9375 C22.87287231 4.17388184 22.87287231 4.17388184 24.2097168 4.41503906 C35.3007642 6.4884427 45.95353413 10.10207471 56.5 14.0625 C59.88603564 15.31396366 63.14537467 16.31108406 66.6875 17 C70.4938614 17.76937092 73.52893132 19.11844456 76.9375 20.94921875 C79.06601331 22.03363178 81.19778807 22.85895792 83.4375 23.6875 C92.26955889 27.12372291 101.11188409 31.74125606 109 37 C109.33 37.99 109.66 38.98 110 40 C111.55017142 41.28178844 111.55017142 41.28178844 113.5 42.375 C114.22316406 42.808125 114.94632813 43.24125 115.69140625 43.6875 C117.92131295 44.95526421 120.17517851 46.16630803 122.4375 47.375 C127.38121849 50.09615787 131.63522776 53.44299405 136 57 C136.9590625 57.75023437 137.918125 58.50046875 138.90625 59.2734375 C139.8859375 60.04945313 140.865625 60.82546875 141.875 61.625 C142.77992188 62.33914063 143.68484375 63.05328125 144.6171875 63.7890625 C147.034434 66.03195024 148.32521473 68.1915857 150 71 C151.67136918 72.17223881 151.67136918 72.17223881 153.5625 73 C157.87419534 75.4810314 160.52971976 78.7886426 163.5 82.6875 C163.94545166 83.27080078 164.39090332 83.85410156 164.84985352 84.45507812 C168 88.71380413 168 88.71380413 168 91 C168.598125 91.20625 169.19625 91.4125 169.8125 91.625 C172.8383427 93.52695827 173.64708502 95.75300404 175 99 C175 99.66 175 100.32 175 101 C175.62003906 101.07605469 176.24007813 101.15210938 176.87890625 101.23046875 C179 102 179 102 180.08984375 103.92578125 C180.50943359 105.10720703 180.50943359 105.10720703 180.9375 106.3125 C182.6232507 110.52687676 184.3890219 112.22232454 188 115 C188.74358164 116.64881145 189.48089901 118.30298129 190.1171875 119.99609375 C191.8688325 123.97217288 194.52680711 127.44521579 197 131 C199 134 199 134 199 137 C199.66 137 200.32 137 201 137 C201.33773438 137.74765625 201.67546875 138.4953125 202.0234375 139.265625 C202.46945312 140.25046875 202.91546875 141.2353125 203.375 142.25 C203.81585937 143.22453125 204.25671875 144.1990625 204.7109375 145.203125 C205.76654486 147.49347308 206.87055533 149.74591681 208 152 C208.70173958 153.63739235 209.4016743 155.27559911 210.08935547 156.91894531 C210.73440014 158.39303666 211.42011213 159.84963651 212.13330078 161.29199219 C215.74948366 168.72219523 217.77703512 176.14092154 219.5625 184.1875 C219.86197369 185.50264249 220.16161811 186.81774611 220.46142578 188.1328125 C222.96584075 199.26303606 224.96681388 210.46741043 226.65136719 221.75 C226.94779474 223.66307866 227.3000598 225.56737121 227.6640625 227.46875 C228 230 228 230 227 233 C227.33 233.94875 227.66 234.8975 228 235.875 C229.07032588 239.21976838 228.83023637 240.67905452 228 244 C228.33 244.66 228.66 245.32 229 246 C229.09809858 248.67751418 229.1390397 251.32309717 229.125 254 C229.12886719 254.73734375 229.13273437 255.4746875 229.13671875 256.234375 C229.1266598 261.7466804 229.1266598 261.7466804 228 264 C228.144375 264.845625 228.28875 265.69125 228.4375 266.5625 C229.12190997 270.7450054 229.08452457 274.7737713 229 279 C228.34 279 227.68 279 227 279 C227.350625 279.94875 227.70125 280.8975 228.0625 281.875 C229 285 229 285 228 287 C227.95425716 289.33288492 227.96175377 291.66698014 228 294 C228.11111111 300.77777778 228.11111111 300.77777778 227 303 C226.75250744 304.97695865 226.52744842 306.95673872 226.3125 308.9375 C225.13366168 317.5236657 222.54440811 325.48486778 219.78027344 333.67675781 C219.03653031 335.89123203 218.31504367 338.11155502 217.6015625 340.3359375 C215.7308243 346.11400993 213.77776182 351.58221662 211 357 C210.32060826 358.99571323 209.65438441 360.99594773 209 363 C207.45282465 366.7390071 205.81662084 370.38709363 204 374 C203.64421875 374.74636719 203.2884375 375.49273438 202.921875 376.26171875 C200.40662618 381.4682838 197.6217681 386.270528 194.34765625 391.03515625 C192.25415511 394.08742024 190.40770323 397.2587214 188.625 400.5 C187 403 187 403 184.5 405.4375 C181.88184461 408.12110927 180.50637986 410.59082452 179 414 C178.34 414 177.68 414 177 414 C176.89300781 414.56589844 176.78601563 415.13179687 176.67578125 415.71484375 C175.89103816 418.36845478 174.72373298 420.26398432 173.1875 422.5625 C172.68605469 423.32691406 172.18460938 424.09132813 171.66796875 424.87890625 C169.96394695 427.04584732 168.21680778 428.38902789 166 430 C165.319375 431.175625 165.319375 431.175625 164.625 432.375 C162.93567507 435.1039095 161.03757557 436.77801146 158.53515625 438.7578125 C155.51501675 441.2015895 152.8903636 444.07286051 150.203125 446.87109375 C149.57921875 447.51175781 148.9553125 448.15242188 148.3125 448.8125 C147.73113281 449.41707031 147.14976562 450.02164062 146.55078125 450.64453125 C145 452 145 452 143 452 C142.34 453.32 141.68 454.64 141 456 C140.01 456 139.02 456 138 456 C138 456.66 138 457.32 138 458 C137.236875 458.45375 136.47375 458.9075 135.6875 459.375 C132.95750362 460.79684657 132.95750362 460.79684657 131.5 463 C129.64294414 465.47607448 127.66378908 466.4252529 125 468 C122.27855103 469.95478709 119.59738843 471.958149 116.9140625 473.96484375 C113.71978452 476.19570009 110.39863818 478.10680832 107 480 C105.92621094 480.62519531 104.85242188 481.25039063 103.74609375 481.89453125 C92.80537021 488.23679247 81.65104946 494.05473283 70 499 C68.96230469 499.44601562 67.92460938 499.89203125 66.85546875 500.3515625 C58.26431564 504 58.26431564 504 56 504 C56 504.99 56 505.98 56 507 C53.37638987 507.52890546 50.75151775 508.04842088 48.125 508.5625 C47.37863281 508.71396484 46.63226562 508.86542969 45.86328125 509.02148438 C40.2265625 510.11328125 40.2265625 510.11328125 38 509 C37.814375 509.639375 37.62875 510.27875 37.4375 510.9375 C36 513 36 513 32.875 513.5625 C31.59625 513.706875 30.3175 513.85125 29 514 C27.65308817 514.46217563 26.31912113 514.96362585 25 515.5 C20.28192256 517.36890835 15.93757265 518.64585755 11 517 C10.34 517.33 9.68 517.66 9 518 C6.91666909 518.02107416 4.83276942 517.99025738 2.75 517.9375 C-1.80600064 517.85599433 -6.23727944 517.97274934 -10.76171875 518.546875 C-22.19965237 519.98928879 -33.05695562 519.89488712 -44.5 518.75 C-45.50194901 518.64986099 -45.50194901 518.64986099 -46.5241394 518.54769897 C-61.14327454 517.0498635 -75.58878397 514.84533081 -90 512 C-90.97066406 511.81308594 -91.94132813 511.62617187 -92.94140625 511.43359375 C-98.75063004 510.24936996 -98.75063004 510.24936996 -101 508 C-103.39016382 507.09826951 -105.75691353 506.2749696 -108.1875 505.5 C-109.15913086 505.18095703 -109.15913086 505.18095703 -110.15039062 504.85546875 C-113.31538705 503.82471068 -116.48364372 502.8632067 -119.6875 501.95703125 C-122.47424074 501.15189979 -125.12275927 500.26431273 -127.8125 499.1875 C-128.56144531 498.89230469 -129.31039062 498.59710937 -130.08203125 498.29296875 C-138.50018619 494.56283584 -146.56080696 490.1179612 -154.625 485.6875 C-155.62917969 485.13771484 -156.63335938 484.58792969 -157.66796875 484.02148438 C-160.11287259 482.68260846 -162.55686055 481.34209195 -165 480 C-165 479.34 -165 478.68 -165 478 C-165.84820313 477.76796875 -166.69640625 477.5359375 -167.5703125 477.296875 C-171.54250424 475.79486172 -174.49412707 473.77006713 -177.875 471.25 C-178.4848877 470.80333984 -179.09477539 470.35667969 -179.72314453 469.89648438 C-180.93244855 469.00916919 -182.13939564 468.1186312 -183.34375 467.22460938 C-184.78134161 466.16167313 -186.2332164 465.11810688 -187.6875 464.078125 C-188.409375 463.55734375 -189.13125 463.0365625 -189.875 462.5 C-190.49117187 462.0565625 -191.10734375 461.613125 -191.7421875 461.15625 C-192.15726563 460.7746875 -192.57234375 460.393125 -193 460 C-193 459.34 -193 458.68 -193 458 C-193.86238281 457.59394531 -193.86238281 457.59394531 -194.7421875 457.1796875 C-197.03283183 455.98284565 -199.04240326 454.65329343 -201.125 453.125 C-201.80820312 452.63257813 -202.49140625 452.14015625 -203.1953125 451.6328125 C-205 450 -205 450 -205.9921875 447.9296875 C-206.8344394 445.85751212 -206.8344394 445.85751212 -208.84448242 445.07910156 C-212.6887504 443.1545728 -215.4305579 439.89663879 -218.4375 436.875 C-219.09298828 436.235625 -219.74847656 435.59625 -220.42382812 434.9375 C-224.21520703 431.14992388 -227.25016031 427.40468839 -229.90356445 422.74169922 C-231.10276985 420.69400768 -231.10276985 420.69400768 -233.75 418.25 C-235.95798431 416.04201569 -236.66206898 415.04137915 -237 412 C-237.66 412 -238.32 412 -239 412 C-240.4453125 409.83203125 -240.4453125 409.83203125 -242.125 406.8125 C-244.62388357 402.39814988 -247.18409178 398.05007134 -249.875 393.75 C-260.21514284 376.93481588 -269.2077337 359.71137992 -275.1171875 340.78515625 C-276.1102752 337.65209638 -277.23863504 334.58390868 -278.375 331.5 C-280.50380921 325.56974578 -282.41949957 319.5913453 -284.25 313.5625 C-284.63744385 312.30179688 -284.63744385 312.30179688 -285.03271484 311.015625 C-287.13414138 303.99313631 -288.13835078 297.42002576 -288.0625 290.0625 C-288.05347656 288.91910156 -288.04445313 287.77570313 -288.03515625 286.59765625 C-288.02355469 285.74042969 -288.01195312 284.88320313 -288 284 C-287.34 284 -286.68 284 -286 284 C-285.8548999 284.58676514 -285.7097998 285.17353027 -285.56030273 285.77807617 C-279.97087001 308.20766187 -273.43815308 329.94594661 -262.67797852 350.48364258 C-260.87853507 353.97118318 -259.5118822 357.09313435 -259 361 C-258.01 361.33 -257.02 361.66 -256 362 C-254.12031269 365.15359861 -252.54363051 368.41422518 -250.9140625 371.703125 C-248.94595724 375.09308591 -246.83730136 377.32179965 -244 380 C-242.71999984 381.51685059 -241.46740009 383.05746272 -240.25 384.625 C-239.65703125 385.38039063 -239.0640625 386.13578125 -238.453125 386.9140625 C-237 389 -237 389 -236 392 C-235.34 392 -234.68 392 -234 392 C-232.56450274 393.59334239 -231.20172673 395.25251082 -229.875 396.9375 C-223.41098368 404.99424994 -216.92019769 412.35725355 -209 419 C-208.1028125 419.804375 -208.1028125 419.804375 -207.1875 420.625 C-204.37979496 423.1318795 -201.6931575 425.27083828 -198.375 427.0625 C-194.93996743 429.03446314 -192.78303411 431.21696589 -190 434 C-184.98338395 437.20209535 -179.59986709 439.71312642 -174.27368164 442.35620117 C-168.3506738 445.30228265 -162.48300568 448.25661303 -157.0625 452.0625 C-153.62173065 454.23931326 -150.171433 455.61557474 -146.37890625 457.0625 C-144 458 -144 458 -140.9375 459.5625 C-137.06258452 461.45873524 -133.11948956 462.73709079 -129 464 C-127.92105469 464.33257813 -126.84210938 464.66515625 -125.73046875 465.0078125 C-113.70159573 468.58862365 -101.65455972 470.26217585 -89.1875 471.625 C-88.01251953 471.7590625 -86.83753906 471.893125 -85.62695312 472.03125 C-80.04346712 472.64918521 -74.61460109 473.10679948 -69 473 C-67.948125 473.165 -66.89625 473.33 -65.8125 473.5 C-60.53595299 474.19200617 -55.31371112 474.07852775 -50 474 C-50.13277344 473.25878906 -50.26554688 472.51757812 -50.40234375 471.75390625 C-51.3505219 466.0994424 -52.06069487 460.59481814 -52.19238281 454.8684082 C-52.46886245 444.70309526 -55.17974898 436.35370739 -59 427 C-59.56623321 425.57987674 -60.13134625 424.1593063 -60.6953125 422.73828125 C-61.71419409 420.17608926 -62.75054705 417.62399995 -63.80078125 415.07421875 C-65 412 -65 412 -65.41796875 409.70703125 C-66.25205823 407.26074197 -67.72494032 407.11901669 -70 406 C-71.81640625 403.6875 -71.81640625 403.6875 -73.5625 401 C-75.63056299 397.83111952 -76.81345774 396.12436151 -80 394 C-80 393.34 -80 392.68 -80 392 C-80.66 392 -81.32 392 -82 392 C-82.99 390.515 -82.99 390.515 -84 389 C-84.99 388.67 -85.98 388.34 -87 388 C-87 387.34 -87 386.68 -87 386 C-87.825 385.87625 -88.65 385.7525 -89.5 385.625 C-92.65039237 385.06242993 -95.71061634 384.33519001 -98.8046875 383.5234375 C-101.15009834 382.96421143 -103.49681785 382.58262117 -105.875 382.1875 C-115.72837248 380.2168255 -124.47866158 374.52486346 -132 368 C-132.33 367.01 -132.66 366.02 -133 365 C-134.97746603 364.26919734 -136.98072489 363.60578253 -139 363 C-139.99 362.34 -140.98 361.68 -142 361 C-142 360.01 -142 359.02 -142 358 C-143.32 357.67 -144.64 357.34 -146 357 C-146 355.68 -146 354.36 -146 353 C-146.8971875 352.6596875 -146.8971875 352.6596875 -147.8125 352.3125 C-150.61183411 350.63289954 -151.58100061 348.90894875 -153 346 C-153 345.01 -153 344.02 -153 343 C-153.9590625 342.6596875 -153.9590625 342.6596875 -154.9375 342.3125 C-155.618125 341.879375 -156.29875 341.44625 -157 341 C-157.34153937 339.33499557 -157.67449498 337.66821323 -158 336 C-158.61359375 335.566875 -159.2271875 335.13375 -159.859375 334.6875 C-162.55009036 332.56635213 -163.40004746 330.56655666 -164.75 327.4375 C-165.17796875 326.46683594 -165.6059375 325.49617188 -166.046875 324.49609375 C-167 322 -167 322 -167 320 C-167.66 320 -168.32 320 -169 320 C-169.98469803 316.62658906 -170.96176103 313.25101218 -171.9375 309.875 C-172.21529297 308.92367188 -172.49308594 307.97234375 -172.77929688 306.9921875 C-174.11992843 302.34035753 -175.32243433 297.8038645 -176 293 C-176.309375 291.8553125 -176.309375 291.8553125 -176.625 290.6875 C-176.74875 290.130625 -176.8725 289.57375 -177 289 C-176.67 288.67 -176.34 288.34 -176 288 C-175.7367754 284.05163095 -175.91002627 281.39620731 -178 278 C-177.01 277.67 -176.02 277.34 -175 277 C-174.6278958 275.67696283 -174.29369827 274.34262065 -174 273 C-173.34 272.67 -172.68 272.34 -172 272 C-172.33 270.68 -172.66 269.36 -173 268 C-172.01 268 -171.02 268 -170 268 C-169.67 266.68 -169.34 265.36 -169 264 C-168.34 264 -167.68 264 -167 264 C-166.7525 263.401875 -166.505 262.80375 -166.25 262.1875 C-164.78034996 259.61561243 -163.56909841 258.46805623 -161 257 C-158.25 256.8125 -158.25 256.8125 -156 257 C-156 256.34 -156 255.68 -156 255 C-154.64455078 254.49339844 -154.64455078 254.49339844 -153.26171875 253.9765625 C-152.08222656 253.53054688 -150.90273438 253.08453125 -149.6875 252.625 C-148.51574219 252.18414062 -147.34398437 251.74328125 -146.13671875 251.2890625 C-142.55382685 249.81664117 -140.42797705 248.53497132 -138 245.5 C-136 243 -136 243 -133 241 C-132.67 240.01 -132.34 239.02 -132 238 C-131.34 238 -130.68 238 -130 238 C-129.67 237.01 -129.34 236.02 -129 235 C-127.68 235 -126.36 235 -125 235 C-125.2165625 233.453125 -125.2165625 233.453125 -125.4375 231.875 C-125 228 -125 228 -123.51171875 226.375 C-122.24387167 225.3670222 -120.96218391 224.3762342 -119.66796875 223.40234375 C-117.48824269 221.56974034 -117.00964274 219.62507112 -116 217 C-114.01739574 215.31267723 -112.0167658 213.64633943 -110 212 C-109.566875 211.21625 -109.13375 210.4325 -108.6875 209.625 C-106.43884381 206.12709037 -103.51156986 204.15957371 -100.19921875 201.6953125 C-97.83905933 199.95789439 -97.83905933 199.95789439 -95.4375 197.375 C-92.2601736 194.27914351 -87.65111796 190 -83 190 C-83.185625 189.319375 -83.37125 188.63875 -83.5625 187.9375 C-83.97768502 185.14982913 -83.7923107 183.0384791 -83.3203125 180.28515625 C-82.88753842 177.19768265 -82.70451559 174.11061621 -82.5 171 C-82.18121366 166.28793935 -81.74659735 161.66623343 -81 157 C-80.01336426 150.96750607 -80.01336426 150.96750607 -81 145 C-80.67 144.67 -80.34 144.34 -80 144 C-79.92530057 142.56950588 -79.91675049 141.13541788 -79.9375 139.703125 C-79.94523438 138.8265625 -79.95296875 137.95 -79.9609375 137.046875 C-79.98676098 135.19791361 -80.01279893 133.34895519 -80.0390625 131.5 C-80.04679688 130.61828125 -80.05453125 129.7365625 -80.0625 128.828125 C-80.07990234 127.6201123 -80.07990234 127.6201123 -80.09765625 126.38769531 C-79.9932494 123.83494773 -79.51059481 121.49970335 -79 119 C-79 117.783125 -79 116.56625 -79 115.3125 C-79 112 -79 112 -78 110 C-78.32050798 107.66487041 -78.65596692 105.33177975 -79 103 C-79.19835821 99.29731339 -79.16623476 96.51261236 -78.01953125 92.9765625 C-76.27607356 87.12424516 -76.56959935 80.97421797 -76.43359375 74.91796875 C-76.40394531 73.97308594 -76.37429688 73.02820313 -76.34375 72.0546875 C-76.32505859 71.20374512 -76.30636719 70.35280273 -76.28710938 69.47607422 C-75.95956516 66.65128392 -75.31022149 64.52442591 -74 62 C-73.01 61.67 -72.02 61.34 -71 61 C-70.39671875 61.74765625 -69.7934375 62.4953125 -69.171875 63.265625 C-67.97304688 64.74289062 -67.97304688 64.74289062 -66.75 66.25 C-65.56664062 67.71179688 -65.56664062 67.71179688 -64.359375 69.203125 C-62.33174356 71.60674108 -60.24583033 73.80468937 -58 76 C-53.4767279 80.82904108 -49.55116161 85.91587484 -45.80859375 91.3671875 C-41.23528774 98.02465673 -36.48234503 104.48025654 -31.3125 110.6875 C-22 121.933391 -22 121.933391 -22 126 C-21.34 126 -20.68 126 -20 126 C-20 126.66 -20 127.32 -20 128 C-19.01 128.33 -18.02 128.66 -17 129 C-15.83203125 130.99609375 -15.83203125 130.99609375 -14.8125 133.4375 C-14.46832031 134.24058594 -14.12414062 135.04367187 -13.76953125 135.87109375 C-13 138 -13 138 -13 140 C-9.04 140 -5.08 140 -1 140 C-0.81824219 138.35773438 -0.63648438 136.71546875 -0.44921875 135.0234375 C1.91488357 114.19901437 1.91488357 114.19901437 4.31640625 104.0703125 C5.05189365 100.76692336 5.5380563 97.47695508 6 94.125 C6.62441031 89.83669448 7.53346667 86.20387188 9.2109375 82.23046875 C10.68519869 78.06312647 11.4005859 73.69646251 12.25390625 69.3671875 C13 66 13 66 13.98828125 63.1875 C15.35130346 58.89319065 15.96832286 54.5743227 16.625 50.125 C16.7590625 49.24585938 16.893125 48.36671875 17.03125 47.4609375 C17.35887059 45.30800222 17.68008508 43.15409378 18 41 C19.76782227 40.31201172 19.76782227 40.31201172 22 40 C23.84350586 41.18408203 23.84350586 41.18408203 25.71484375 43.0078125 C26.40126953 43.66523438 27.08769531 44.32265625 27.79492188 45 C28.50197266 45.70125 29.20902344 46.4025 29.9375 47.125 C30.99227539 48.14207031 30.99227539 48.14207031 32.06835938 49.1796875 C34.05985128 51.10585399 36.03295058 53.04891519 38 55 C39.38251953 56.36318359 39.38251953 56.36318359 40.79296875 57.75390625 C42.72795053 59.7231355 44.57168914 61.72329839 46.375 63.8125 C48.19194356 65.91445432 50.01039984 68.01162079 51.86328125 70.08203125 C55.26699834 73.89390285 58.16140373 77.74210559 61 82 C61.74894531 82.72960937 62.49789063 83.45921875 63.26953125 84.2109375 C66.40027398 87.40886355 68.95585256 90.81133164 71.5625 94.4375 C72.26536133 95.40139648 72.26536133 95.40139648 72.98242188 96.38476562 C75.12157088 99.33170516 77.21653873 102.29668796 79.22265625 105.3359375 C80.91913081 107.99419097 80.91913081 107.99419097 82.875 110.1875 C85.56117756 113.742735 87.55290493 117.54305854 89.6328125 121.4765625 C91.02093103 124.13036184 91.02093103 124.13036184 93 127 C93 127.99 93 128.98 93 130 C93.598125 130.02449219 94.19625 130.04898438 94.8125 130.07421875 C97 131 97 131 98.5625 134.01953125 C99.05684917 135.2779954 99.53547865 136.54272323 100 137.8125 C101.7176612 142.42281591 103.48303707 145.52441311 107 149 C108.4921875 152.13671875 108.4921875 152.13671875 109.875 155.6875 C111.96411641 160.87929123 114.33850828 165.45134438 117.703125 169.9375 C119 172 119 172 119.93359375 174.80859375 C121.16057946 178.48056199 122.92536302 181.7035283 124.8125 185.0625 C128.01019305 190.88782183 130.56194726 196.72863759 132.84375 202.98046875 C135.00192346 208.61650957 137.65265967 213.9789895 141 219 C141.46946452 220.48371616 141.89328691 221.98221054 142.28515625 223.48828125 C144.00205428 229.42182078 146.65474992 234.6919272 149.4375 240.1875 C154.2959682 250.03939384 158.55649039 260.00470023 162.5 270.25 C162.87341019 271.21382095 162.87341019 271.21382095 163.25436401 272.19711304 C166.53930323 280.7047036 169.43510473 289.25069394 172 298 C172.66 298 173.32 298 174 298 C173.9071875 296.453125 173.9071875 296.453125 173.8125 294.875 C174.01407947 290.70902439 175.10114421 288.6394736 177 285 C177.16798262 282.29113059 177.16798262 282.29113059 177 280 C177.33 279.67 177.66 279.34 178 279 C178.02076012 277.3124991 177.99086458 275.62428466 177.9375 273.9375 C177.89669416 270.41459592 177.9956027 267.37842727 179 264 C180.17038991 260.00929553 180.08262916 256.33233675 179.875 252.19921875 C179.98935038 249.27256376 180.41116205 246.72262986 180.984375 243.859375 C182.09297879 238.05144678 182.30612642 232.46322399 182.25 226.5625 C182.24540771 225.55767578 182.24081543 224.55285156 182.23608398 223.51757812 C182.15036125 216.50988687 181.52113341 209.85090622 180 203 C179.28636501 198.57546306 179 194.4709914 179 190 C178.66299694 186.22556577 178.25917032 183.49674311 176.5 180.125 C174.7963066 176.57563875 174.52337307 173.74102191 174.30859375 169.85546875 C174.20675781 169.24316406 174.10492187 168.63085938 174 168 C173.34 167.67 172.68 167.34 172 167 C171.69140625 165.21484375 171.69140625 165.21484375 171.5625 162.9375 C171.27208213 159.56542579 170.68681779 156.7716462 169.4375 153.625 C168 150 168 150 168 147 C167.34 147 166.68 147 166 147 C165.83564453 146.09507812 165.83564453 146.09507812 165.66796875 145.171875 C165.43013672 143.97304688 165.43013672 143.97304688 165.1875 142.75 C165.03667969 141.96109375 164.88585937 141.1721875 164.73046875 140.359375 C163.90753517 137.70134353 162.69986584 136.18732737 161 134 C160.05683223 132.16945747 159.16230985 130.31320643 158.3125 128.4375 C157.87550781 127.48746094 157.43851563 126.53742188 156.98828125 125.55859375 C156 123 156 123 156 120 C155.34 120 154.68 120 154 120 C153.195625 118.515 153.195625 118.515 152.375 117 C150.42695728 113.59768927 148.21826174 110.5320367 145.828125 107.4296875 C144.40483078 105.53804433 143.02865272 103.63403608 141.671875 101.6953125 C137.31153958 95.46868236 132.91899749 89.54655942 127.73828125 83.9609375 C126.10071874 82.11361979 124.739428 80.24063927 123.375 78.1875 C120.8652702 74.81917843 118.4702176 73.28886693 115 71 C111 65.73684211 111 65.73684211 111 63 C110.09894531 62.61134766 110.09894531 62.61134766 109.1796875 62.21484375 C106.82856794 60.90445274 105.74254791 59.68724514 104.125 57.5625 C101.46373584 54.3038092 98.9483954 52.59816004 95 51 C95 50.34 95 49.68 95 49 C94.41299316 48.72381836 93.82598633 48.44763672 93.22119141 48.16308594 C91.10378886 47.05434712 89.34633598 45.85226266 87.4609375 44.390625 C86.46513672 43.62878906 86.46513672 43.62878906 85.44921875 42.8515625 C84.0886472 41.80102703 82.72923058 40.74899371 81.37109375 39.6953125 C72.82742304 33.16866962 63.81110299 28.23090987 54 23.875 C53.07960938 23.45863281 52.15921875 23.04226562 51.2109375 22.61328125 C42.41773414 18.66253213 33.67324765 15.01360033 24.375 12.4375 C19.42474415 11.05380302 14.60205898 9.53523294 9.80322266 7.68920898 C7.55638575 6.83044638 5.28525479 6.06234923 3 5.3125 C2.236875 5.06113281 1.47375 4.80976563 0.6875 4.55078125 C-0.1478125 4.27814453 -0.1478125 4.27814453 -1 4 C-0.67 2.68 -0.34 1.36 0 0 Z " fill="#FF6706" transform="translate(799,212)"/>
<path d="M0 0 C0.33 1.32 0.66 2.64 1 4 C1.66 4 2.32 4 3 4 C0.6570931 14.40381733 -2.32716616 24.57148663 -5.5 34.75 C-5.87954834 35.96840576 -6.25909668 37.18681152 -6.65014648 38.44213867 C-9.44702816 47.35557662 -12.37582848 56.22060574 -15.37890625 65.06640625 C-17.58134311 71.57195407 -19.65482603 78.06313954 -21.32421875 84.73046875 C-22 87 -22 87 -22.99609375 88.8984375 C-24.32551703 91.68143253 -24.79101876 94.41110312 -25.375 97.4375 C-26.56053331 103.18232311 -28.06216711 108.69363294 -29.83203125 114.28125 C-33.77204633 126.82604717 -37.19266275 139.31504625 -39.6015625 152.24560547 C-40.56684493 157.27412361 -41.88105356 161.71795025 -44 166.39453125 C-45.644478 170.67916728 -46.50583089 175.14675537 -47.49780273 179.61962891 C-48.45653895 183.87639891 -49.58619451 187.94792995 -51.0625 192.0625 C-52.93699966 197.38578614 -53.96492779 202.67922769 -54.92602539 208.22119141 C-55.57167432 211.88967119 -56.33675634 215.39955168 -57.5 218.9375 C-59.31469634 224.59784817 -60.20135508 230.40340153 -61.18359375 236.25 C-62.03354927 241.28864587 -63.01837034 246.29816692 -64 251.3125 C-65.55958399 259.32117454 -66.87062613 267.3427432 -67.9609375 275.42895508 C-68.12335938 276.59140747 -68.12335938 276.59140747 -68.2890625 277.77734375 C-68.37881348 278.45015381 -68.46856445 279.12296387 -68.56103516 279.81616211 C-69 282 -69 282 -69.97705078 284.89404297 C-70.9739165 287.92080327 -71.57404145 290.77502298 -72.078125 293.91796875 C-72.36067139 295.6513147 -72.36067139 295.6513147 -72.64892578 297.41967773 C-72.94645752 299.28474976 -72.94645752 299.28474976 -73.25 301.1875 C-73.57590516 303.17616393 -73.90183253 305.16482436 -74.22866821 307.15333557 C-74.57733162 309.2771302 -74.92420503 311.40120986 -75.27050781 313.52539062 C-75.38946411 314.25491943 -75.50842041 314.98444824 -75.63098145 315.73608398 C-75.8810231 317.27008086 -76.13093782 318.80409843 -76.3807373 320.33813477 C-77.15717113 325.10035999 -77.94289987 329.86090778 -78.73962402 334.61978149 C-78.99472959 336.15403098 -79.24648841 337.68884102 -79.49475098 339.22421265 C-79.84503777 341.38921086 -80.20648838 343.55208502 -80.5703125 345.71484375 C-80.77414551 346.95355225 -80.97797852 348.19226074 -81.18798828 349.46850586 C-82.06923411 353.30110386 -83.40512292 356.41378071 -85 360 C-85.61709586 362.13853564 -85.61709586 362.13853564 -85.921875 364.109375 C-86.05658203 364.84969971 -86.19128906 365.59002441 -86.33007812 366.3527832 C-86.46865234 367.14386475 -86.60722656 367.93494629 -86.75 368.75 C-88.29576817 377.05068121 -90.30523843 385.16119149 -92.5 393.3125 C-96.63735479 408.85141822 -99.51082926 424.42924747 -101.13964844 440.42236328 C-101.97213445 447.89508644 -103.61135246 455.20621871 -105.23608398 462.54077148 C-106.22746945 467.05641369 -107.11839738 471.49140414 -107.58984375 476.09375 C-108 480 -108 480 -109 482 C-109.35140122 483.92210253 -109.65939797 485.85222743 -109.9453125 487.78515625 C-110.1196582 488.95578613 -110.29400391 490.12641602 -110.47363281 491.33251953 C-110.971597 494.80210118 -111.45353916 498.27345966 -111.9296875 501.74609375 C-112.24479167 503.9765625 -112.55989583 506.20703125 -112.875 508.4375 C-113.02324219 509.56865234 -113.17148437 510.69980469 -113.32421875 511.86523438 C-114.19763318 517.8974747 -114.93573912 522.35288 -119 527 C-121.95731739 528.78995526 -123.54901728 529.02818642 -127 528.8125 C-131.11443546 527.69817373 -134.06343021 526.36512871 -136.51953125 522.78515625 C-140.40646554 514.60028254 -143.7925442 506.25113556 -147.09765625 497.81640625 C-149.02448851 492.90255066 -151.07734059 488.05293949 -153.1875 483.21484375 C-154 481 -154 481 -154 478 C-154.66 478 -155.32 478 -156 478 C-162.92098429 464.41981805 -168.14376255 450.58881298 -172.94775391 436.13574219 C-174.51449001 431.46679589 -176.16420634 426.82813567 -177.8125 422.1875 C-179.67978818 416.92966412 -181.39318242 411.69488672 -182.875 406.3125 C-184.43905385 401.01773761 -186.77685196 396.48841018 -189.4375 391.6875 C-193.8507564 383.67994199 -196.65630529 375.81191561 -199 367 C-199.34925537 365.68878174 -199.34925537 365.68878174 -199.70556641 364.35107422 C-200.0775415 362.95332764 -200.0775415 362.95332764 -200.45703125 361.52734375 C-200.97069607 359.60138686 -201.48502525 357.67560705 -202 355.75 C-202.25418701 354.79681885 -202.50837402 353.8436377 -202.77026367 352.86157227 C-204.35321273 347.03914335 -206.22912521 341.56553932 -208.71484375 336.05859375 C-210.39996426 332.04810937 -211.72231017 327.94876933 -213.0625 323.8125 C-214.82887756 318.37684652 -216.67951681 313.12241055 -219.12890625 307.94921875 C-220.42649308 305.04565001 -221.37010705 302.04532171 -222.33984375 299.01953125 C-223.11982827 296.63342476 -224.02936401 294.31459351 -225 292 C-225.66 292 -226.32 292 -227 292 C-227.99 289.69 -228.98 287.38 -230 285 C-232.49356449 288.74034674 -234.37391132 292.6743686 -236.359375 296.703125 C-237.3867619 298.76768343 -238.43562357 300.82184653 -239.515625 302.859375 C-244.29306094 311.96164769 -247.48406463 321.47395513 -250.73388672 331.1953125 C-253.24284924 338.67694824 -255.77812971 345.82683577 -259.5 352.8125 C-263.57311876 360.65437261 -265.89682141 368.82558498 -268.25292969 377.31640625 C-269.01949161 380.07001693 -269.8075785 382.81667867 -270.6015625 385.5625 C-271.87271552 389.96264508 -273.126518 394.36738558 -274.37011719 398.77539062 C-274.90946561 400.68025218 -275.45774229 402.58258189 -276.0078125 404.484375 C-276.27335938 405.41765625 -276.53890625 406.3509375 -276.8125 407.3125 C-277.02519531 408.05113281 -277.23789062 408.78976562 -277.45703125 409.55078125 C-278.07348177 412.33146094 -278.39456025 415.11829105 -278.72924805 417.94458008 C-280.22172168 429.27472931 -283.97196988 440.22535812 -287.4375 451.0625 C-290.63560023 461.09499415 -293.24669284 471.03477475 -295.25756836 481.36645508 C-303.31973726 522.55958775 -303.31973726 522.55958775 -314 531 C-317.00543128 532.48590674 -318.26869738 531.91918432 -321.55859375 530.9296875 C-325.59679438 528.66536161 -326.39567312 527.37617315 -328.0625 523.125 C-328.2994458 522.5278418 -328.5363916 521.93068359 -328.78051758 521.31542969 C-331.85838201 513.24400079 -334.05043034 504.85020739 -336.29516602 496.51806641 C-336.98716823 494.04584237 -337.75833148 491.60948254 -338.5390625 489.1640625 C-340.33063499 483.24438665 -341.26017366 477.23019911 -342.1875 471.125 C-342.36474609 470.01125 -342.54199219 468.8975 -342.72460938 467.75 C-343.39854264 463.43058216 -344 459.38052313 -344 455 C-344.66 455 -345.32 455 -346 455 C-346.34611328 453.43378906 -346.34611328 453.43378906 -346.69921875 451.8359375 C-347.39367539 448.69713815 -348.09240435 445.55931644 -348.79296875 442.421875 C-349.61809003 438.72608977 -350.43109945 435.02786653 -351.23828125 431.328125 C-353.36089077 421.68065014 -355.63222772 412.29977818 -359 403 C-360.10067784 399.85997716 -361.17738109 396.71219911 -362.25 393.5625 C-362.52062256 392.79196289 -362.79124512 392.02142578 -363.07006836 391.22753906 C-364.38596471 387.36757643 -365.36216381 384.14019079 -365 380 C-365.66 380 -366.32 380 -367 380 C-370.52804649 368.82264917 -373.94781814 357.6153839 -377.28613281 346.37988281 C-377.75108615 344.82982635 -378.22400521 343.2821299 -378.70605469 341.73730469 C-380.48001239 336.00366273 -381.97031794 330.2157061 -383.40582275 324.39015198 C-385.17792474 317.22082922 -387.09203224 310.0925948 -389.03710938 302.96850586 C-389.63491506 300.77613792 -390.22767683 298.58244231 -390.8203125 296.38867188 C-391.20542752 294.97387619 -391.59083297 293.55915952 -391.9765625 292.14453125 C-392.48823975 290.26278198 -392.48823975 290.26278198 -393.01025391 288.34301758 C-393.86125215 285.4686419 -394.87297347 282.77238888 -396 280 C-396.45458184 277.79915867 -396.86701765 275.58942357 -397.25 273.375 C-398.37927142 267.24379268 -400.04717469 261.41700096 -402 255.5 C-405.10637913 246.04148604 -408.33905565 236.05865086 -408 226 C-408.66 226 -409.32 226 -410 226 C-411.99903282 219.09908352 -413.96670939 212.1936885 -415.8125 205.25 C-416.14378906 204.00476563 -416.47507812 202.75953125 -416.81640625 201.4765625 C-417.45906618 199.05297683 -418.09698456 196.62827992 -418.72998047 194.20214844 C-422.2553561 180.70080172 -426.02210776 167.34148693 -430.42285156 154.09619141 C-432.90548047 146.57499383 -432.90548047 146.57499383 -433.515625 142.86328125 C-434.22497209 138.67012467 -435.83556243 134.88893405 -437.375 130.9375 C-439.9030828 124.28754308 -441.9347425 117.78227072 -443.390625 110.8046875 C-444.46457994 105.86174107 -445.71248852 100.98209004 -448.484375 96.71484375 C-450.31460136 93.43647437 -451.01216049 90.19945355 -451.75 86.5625 C-453.89553041 76.78817896 -456.95399825 67.36736192 -460.06787109 57.86572266 C-461.31611006 54.02815613 -462.52431056 50.17842845 -463.73413086 46.32861328 C-467.9982368 30.80887606 -467.9982368 30.80887606 -474.65625 16.36328125 C-476.57387867 12.99070757 -475.8498324 10.68260709 -475 7 C-473.14483028 5.14483028 -470.0795034 5.86251807 -467.60009766 5.85473633 C-466.93177414 5.85137772 -466.26345062 5.8480191 -465.57487488 5.84455872 C-463.35458543 5.83502146 -461.13437119 5.83310411 -458.9140625 5.83203125 C-457.37568124 5.82882017 -455.83730029 5.82545622 -454.29891968 5.82194519 C-451.06906425 5.81594668 -447.83923561 5.81410599 -444.609375 5.81469727 C-440.46752274 5.81479883 -436.32584212 5.80115546 -432.18403053 5.78392506 C-429.00476287 5.77281327 -425.82553677 5.77077782 -422.64625168 5.77130699 C-421.11920964 5.77012529 -419.59216658 5.76569291 -418.06514359 5.75797462 C-415.92953699 5.7481928 -413.79430383 5.7510456 -411.65869141 5.75708008 C-410.44259186 5.75565506 -409.22649231 5.75423004 -407.97354126 5.75276184 C-405 6 -405 6 -402 8 C-401.33203125 10.45703125 -401.33203125 10.45703125 -400.8125 13.8125 C-399.43132359 21.79612589 -397.26510767 29.52127594 -395.0625 37.3125 C-392.74282996 45.52555558 -390.52080749 53.69967495 -388.8125 62.0625 C-387.58876531 67.99213581 -385.79260793 73.28619266 -383.29296875 78.80078125 C-381.36997179 83.55889156 -380.09236905 88.46227249 -378.78735352 93.41992188 C-377.61364916 97.87015542 -376.28913744 102.22548993 -374.80761719 106.58276367 C-373.2602274 111.21417427 -371.8581969 115.89100417 -370.4375 120.5625 C-370.13392578 121.55185547 -369.83035156 122.54121094 -369.51757812 123.56054688 C-368.28052556 127.62206806 -367.08209059 131.63078326 -366.16015625 135.77734375 C-365.07296078 140.29812109 -363.22804957 144.50329859 -361.46734619 148.79618835 C-358.51698249 156.05893282 -356.03923936 163.46578075 -353.58520508 170.90820312 C-352.80799012 173.26366785 -352.02266679 175.61631729 -351.23632812 177.96875 C-348.82814269 185.20927374 -346.49083724 192.42483655 -344.64111328 199.83325195 C-343.78811539 202.71609898 -342.45550809 205.20548493 -341.0390625 207.84375 C-338.53658215 213.03686712 -337.0039813 218.70203819 -335.328125 224.20703125 C-333.53060411 229.93936919 -331.13068671 235.37531996 -328.68603516 240.85449219 C-326.83339171 245.02560876 -325.13546878 249.21299355 -323.5625 253.5 C-320.6415671 261.29242166 -316.81855182 268.61872985 -313 276 C-310.51954565 272.965937 -309.02278295 270.00416221 -307.5625 266.375 C-307.13195312 265.30507813 -306.70140625 264.23515625 -306.2578125 263.1328125 C-305.84273437 262.09898437 -305.42765625 261.06515625 -305 260 C-304.64679688 259.19304687 -304.29359375 258.38609375 -303.9296875 257.5546875 C-301.41578564 251.71530916 -299.84618835 245.81338363 -298.48217773 239.62011719 C-297.54988286 235.55465095 -296.22356864 232.50473838 -294 229 C-293.64159778 226.67038557 -293.31151288 224.33634657 -293 222 C-292.35418993 219.9867196 -291.70072306 217.97568417 -291.01660156 215.97509766 C-289.73942403 212.23742105 -288.49966953 208.48781083 -287.2578125 204.73828125 C-286.74368348 203.19069078 -286.22935642 201.64316609 -285.71484375 200.09570312 C-284.9221815 197.71161896 -284.12993989 195.32740103 -283.33935547 192.94262695 C-282.56366334 190.60318023 -281.78628527 188.2643041 -281.0078125 185.92578125 C-280.75453186 185.16435822 -280.50125122 184.40293518 -280.24029541 183.61843872 C-278.2945684 177.80230652 -276.22457899 172.04144256 -274.07373047 166.29760742 C-272.99549072 162.98615123 -272.23833151 159.71173068 -271.5140686 156.31025696 C-270.69570039 152.63245822 -269.65552696 149.02468626 -268.609375 145.40625 C-268.38227844 144.61585327 -268.15518188 143.82545654 -267.92120361 143.0111084 C-267.44191058 141.34683391 -266.96115802 139.68297911 -266.47900391 138.01953125 C-265.76025756 135.53545146 -265.04980802 133.04910176 -264.33984375 130.5625 C-261.2707805 119.89680322 -257.84370398 109.41147864 -254 99 C-253.73573212 98.28106064 -253.47146423 97.56212128 -253.19918823 96.82139587 C-251.87429456 93.24613319 -250.49621192 89.88421512 -248.625 86.5625 C-246.32103592 82.09171255 -244.94422279 77.63705535 -243.625 72.8125 C-242.02549157 66.96615457 -240.06498756 61.61961212 -237.375 56.1875 C-234.27832533 49.92022474 -232.48587162 43.81185303 -231 37 C-224.15677966 11.15677966 -224.15677966 11.15677966 -216 3 C-209.68470217 2.59256143 -206.55581731 2.95617194 -201.58203125 6.93359375 C-197.90487678 10.66449797 -197.08938785 15.42105524 -195.875 20.375 C-195.62129639 21.35218994 -195.36759277 22.32937988 -195.10620117 23.33618164 C-193.37635696 30.11469896 -191.91316205 36.91116431 -190.73828125 43.80859375 C-189.89832083 47.43953376 -188.48109253 50.58473007 -187 54 C-186.40172524 56.19367413 -185.8575809 58.40300662 -185.375 60.625 C-185.13523437 61.71039063 -184.89546875 62.79578125 -184.6484375 63.9140625 C-184.08269211 66.60646527 -183.53954525 69.30227376 -183 72 C-182.65038539 73.6051649 -182.29640589 75.209387 -181.9375 76.8125 C-181.76089844 77.60269531 -181.58429688 78.39289063 -181.40234375 79.20703125 C-181.26957031 79.79871094 -181.13679688 80.39039063 -181 81 C-180.34 81 -179.68 81 -179 81 C-178.56429688 82.12535156 -178.12859375 83.25070312 -177.6796875 84.41015625 C-174.29048106 93.15124517 -170.86840613 101.87658932 -167.359375 110.5703125 C-166.14760701 113.62758922 -164.98233408 116.69633979 -163.83447266 119.77783203 C-162.89011571 122.29261755 -161.92475617 124.79880341 -160.95703125 127.3046875 C-160.60576172 128.21734375 -160.25449219 129.13 -159.89257812 130.0703125 C-159.16315196 131.96444626 -158.43132055 133.85765526 -157.69726562 135.75 C-157.34986328 136.65492188 -157.00246094 137.55984375 -156.64453125 138.4921875 C-156.32846924 139.31058105 -156.01240723 140.12897461 -155.68676758 140.97216797 C-155 143 -155 143 -155 145 C-154.34 145 -153.68 145 -153 145 C-152.73783691 145.57032959 -152.47567383 146.14065918 -152.20556641 146.72827148 C-151.01852753 149.30106405 -149.82190916 151.8692854 -148.625 154.4375 C-148.2125 155.33533203 -147.8 156.23316406 -147.375 157.15820312 C-146.97539062 158.01220703 -146.57578125 158.86621094 -146.1640625 159.74609375 C-145.79748535 160.53685303 -145.4309082 161.3276123 -145.05322266 162.14233398 C-144.13452903 164.16502931 -144.13452903 164.16502931 -142 165 C-141.16915462 166.65877552 -140.40921727 168.35341707 -139.6875 170.0625 C-138.15469813 173.55513064 -136.59885018 176.81530934 -134.5 180 C-132.0361606 183.7875792 -130.21415281 187.72521664 -128.39453125 191.85546875 C-126.46872473 196.19797365 -124.43849592 200.48980291 -122.41064453 204.78540039 C-120.82952026 208.15370686 -119.37110704 211.54189818 -118 215 C-115.99321195 219.10940813 -115.99321195 219.10940813 -112 221 C-111.88269531 220.06671875 -111.76539063 219.1334375 -111.64453125 218.171875 C-110.9228517 213.14160421 -109.80895565 208.20393774 -108.6875 203.25 C-108.46384766 202.26064453 -108.24019531 201.27128906 -108.00976562 200.25195312 C-106.9186233 195.54853906 -105.7983264 190.99214594 -104 186.5 C-98.89392414 173.55909519 -96.89043943 159.2820176 -95.09350586 145.56079102 C-94.06286103 137.89432898 -92.36838502 130.48817886 -90.48632812 122.99316406 C-89.19295236 117.69240113 -88.11709229 112.34003966 -87 107 C-86.34 107 -85.68 107 -85 107 C-84.83564453 105.42412109 -84.83564453 105.42412109 -84.66796875 103.81640625 C-83.91338394 96.99424403 -83.18658233 90.54062508 -80.72265625 84.08984375 C-79.61486804 80.88624 -79.09140582 77.59774298 -78.52734375 74.26171875 C-78 72 -78 72 -77.06835938 70.29638672 C-75.65763618 67.26410555 -75.06934938 64.26815711 -74.37890625 60.99609375 C-74.16076515 59.97830589 -74.16076515 59.97830589 -73.93821716 58.93995667 C-73.47449831 56.77352914 -73.01795509 54.60567861 -72.5625 52.4375 C-71.96354538 49.60201994 -71.36090522 46.76736276 -70.75390625 43.93359375 C-70.60659561 43.24494736 -70.45928497 42.55630096 -70.30751038 41.8467865 C-69.2508697 36.97874017 -67.99501685 32.19408025 -66.64086914 27.40209961 C-65.50723341 23.15301696 -64.81468292 18.83637415 -64.09570312 14.50195312 C-63.487533 11.02620987 -62.81644945 8.04820487 -61 5 C-60.34 5 -59.68 5 -59 5 C-58.6596875 4.071875 -58.6596875 4.071875 -58.3125 3.125 C-56.53891862 0.25348728 -55.21994458 -0.00396381 -52 -1 C-49.24492525 -1.30075996 -46.5744287 -1.51148384 -43.8125 -1.625 C-42.63034912 -1.67974487 -42.63034912 -1.67974487 -41.42431641 -1.7355957 C-27.39438958 -2.33027297 -13.89978812 -2.1209486 0 0 Z " fill="#FEFEFE" transform="translate(533,230)"/>
<path d="M0 0 C3.84150852 0.07956288 7.68304878 0.15729354 11.52461243 0.23414612 C13.89882934 0.28224782 16.27300987 0.33219726 18.6471405 0.38438416 C24.97450864 0.51910959 31.29442611 0.58067159 37.62322998 0.53900146 C51.83894809 0.66321679 68.82112269 1.25264084 80.3125 10.5625 C84.16503172 18.26756345 82.65939995 27.62721898 80.07226562 35.42431641 C77.64296764 42.19003651 74.96033949 48.36720236 71.3125 54.5625 C70.58292097 56.16904776 69.88951804 57.79302503 69.25 59.4375 C68.94964844 60.19804687 68.64929687 60.95859375 68.33984375 61.7421875 C66.91443603 65.65528398 65.61736213 69.60785737 64.3125 73.5625 C63.81303362 75.06267777 63.31304065 76.56268032 62.8125 78.0625 C62.565 78.805 62.3175 79.5475 62.0625 80.3125 C59.8125 87.0625 59.8125 87.0625 59.06494141 89.30444336 C58.55621946 90.83110437 58.04809743 92.35796541 57.54052734 93.88500977 C51.03979455 113.43065672 51.03979455 113.43065672 47.9375 119.125 C45.36559614 124.00604354 43.78678742 129.07276305 42.125 134.3125 C38.70246132 145.04050829 34.17945988 155.10351625 29.38134766 165.27563477 C27.36130069 169.59764937 25.51029444 173.70068135 24.4375 178.375 C23.69840071 181.55555022 22.58191657 184.17367295 21.0625 187.0625 C18.7632916 191.45744703 16.95979032 195.91654223 15.25 200.5625 C14.99524902 201.25472656 14.74049805 201.94695312 14.47802734 202.66015625 C13.98218823 204.01145407 13.48704799 205.36300857 12.99267578 206.71484375 C10.72439398 212.87649367 8.24806583 218.81480098 5.23828125 224.6484375 C4.0370579 227.13197945 3.15187639 229.71388614 2.22265625 232.30859375 C1.09991437 235.08894595 -0.25257509 237.70926239 -1.625 240.375 C-8.53561017 253.97329744 -13.53253772 269.18423094 -10.6875 284.5625 C-8.56798734 290.65465113 -5.2824848 296.14643719 -1.89599609 301.609375 C-0.93558487 303.16155476 -0.03001436 304.74763867 0.85546875 306.34375 C4.42906686 312.76523091 8.93490193 318.55310887 13.28125 324.46142578 C17.54375496 330.3247975 21.2720362 336.36820489 24.85668945 342.6628418 C27.11935869 346.61225326 29.48729626 350.30795602 32.25 353.9375 C36.46643638 359.50830685 39.7974332 365.50039758 43.23046875 371.5690918 C46.40038782 377.12364447 49.81826304 382.20680598 53.6875 387.30078125 C55.53889427 389.87760164 56.81289949 392.49012798 58.13671875 395.359375 C60.02845723 398.90402783 62.4290353 402.09040867 64.75146484 405.36279297 C67.91212008 409.8686272 70.67506543 414.51984512 73.35791016 419.32177734 C76.24925659 424.49341986 79.33240532 429.53195093 82.45703125 434.56640625 C84.03551848 437.11524774 85.58905524 439.67542211 87.125 442.25 C90.04979815 447.13272088 92.98687237 452.00785002 95.9375 456.875 C96.40518799 457.65254639 96.87287598 458.43009277 97.35473633 459.23120117 C99.79186782 463.24103934 102.32609719 466.93221157 105.3125 470.5625 C106.60360565 472.44458597 107.87371084 474.34121064 109.125 476.25 C112.2587669 480.99742299 115.46923309 485.67563362 118.76953125 490.30859375 C120.3125 492.5625 120.3125 492.5625 121.69921875 494.94140625 C123.68161817 498.16220531 125.97389016 501.09796811 128.3125 504.0625 C134.50738079 511.91542241 134.50738079 511.91542241 136.3125 515.5625 C135.57389203 519.84642622 134.76142889 522.84734435 131.3125 525.5625 C122.53461402 528.33466143 112.78810762 527.87272725 103.67333984 527.82324219 C101.28848594 527.81239073 98.90436431 527.82326518 96.51953125 527.8359375 C94.99218585 527.83461793 93.4648409 527.83205974 91.9375 527.828125 C91.23020752 527.83217346 90.52291504 527.83622192 89.79418945 527.84039307 C86.15997286 527.80576778 83.31989244 527.71305502 80.3125 525.5625 C78.82260465 523.23617217 77.54480046 521.01803544 76.3125 518.5625 C75.98781738 517.92199707 75.66313477 517.28149414 75.32861328 516.62158203 C74.33183532 514.62852226 73.35213969 512.62775242 72.375 510.625 C70.19162908 506.18785975 67.99406086 501.85117711 65.3125 497.6875 C63.3125 494.5625 63.3125 494.5625 63.3125 492.5625 C62.6525 492.5625 61.9925 492.5625 61.3125 492.5625 C60.49982096 490.93714192 59.68718925 489.31176017 58.87475586 487.6862793 C58.15759827 486.2524586 57.4396426 484.81903685 56.72094727 483.38598633 C54.87748995 479.70748565 53.04557629 476.02445342 51.24609375 472.32421875 C46.03109706 461.64522674 40.01124287 451.86871472 33.1328125 442.16796875 C30.47850513 438.36877773 27.94194467 434.49370307 25.40234375 430.6171875 C23.79665458 428.27018016 22.14980634 426.02358567 20.421875 423.76953125 C17.17993455 419.48155726 14.38640411 414.98248966 11.625 410.375 C11.15255859 409.59447266 10.68011719 408.81394531 10.19335938 408.00976562 C9.29063225 406.51703733 8.39086677 405.02251237 7.49462891 403.52587891 C6.50708977 401.88569102 5.49653384 400.25938987 4.48046875 398.63671875 C3.3125 396.5625 3.3125 396.5625 3.3125 394.5625 C2.6525 394.5625 1.9925 394.5625 1.3125 394.5625 C0.98564209 393.97871582 0.65878418 393.39493164 0.32202148 392.79345703 C-7.34961732 378.91885129 -7.34961732 378.91885129 -16.12109375 365.734375 C-17.88789974 363.28463902 -19.47093651 360.75430399 -21.0625 358.1875 C-23.6968974 354.05279556 -26.36807109 349.94860914 -29.1875 345.9375 C-29.8784375 344.93460938 -30.569375 343.93171875 -31.28125 342.8984375 C-34.39404786 339.87659802 -36.39495303 339.53296413 -40.6875 339.5625 C-43.52283205 341.10397965 -43.80314307 342.88443539 -44.8984375 345.93359375 C-45.29399129 347.28688341 -45.68161123 348.64250987 -46.0625 350 C-48.15489347 357.07523561 -50.69619007 363.81127967 -53.6875 370.5625 C-55.28355648 374.16787758 -56.78950702 377.76469783 -58.0234375 381.51171875 C-58.28560059 382.30521729 -58.54776367 383.09871582 -58.81787109 383.91625977 C-59.10484863 384.78951904 -59.39182617 385.66277832 -59.6875 386.5625 C-61.0183575 390.60498826 -62.35220496 394.64647553 -63.6875 398.6875 C-64.03039063 399.73292969 -64.37328125 400.77835938 -64.7265625 401.85546875 C-66.5020099 407.21569353 -68.39728142 412.40328478 -70.6875 417.5625 C-74.40895227 426.72974238 -77.5950599 435.87119846 -79.6875 445.5625 C-80.3475 445.5625 -81.0075 445.5625 -81.6875 445.5625 C-81.71328125 446.14515625 -81.7390625 446.7278125 -81.765625 447.328125 C-82.2153979 453.82938782 -83.74086774 459.41206463 -85.95410156 465.51806641 C-86.8403461 467.9885763 -87.69791182 470.46833533 -88.5546875 472.94921875 C-90.5844921 478.82540349 -92.63208634 484.69522829 -94.6875 490.5625 C-94.94740723 491.30483887 -95.20731445 492.04717773 -95.47509766 492.81201172 C-104.86450013 519.56690142 -104.86450013 519.56690142 -118.44921875 528.75390625 C-121.9082126 530.00349041 -125.37222115 529.80957459 -129 529.75 C-130.10118164 529.7490332 -130.10118164 529.7490332 -131.22460938 529.74804688 C-135.80035703 529.71150586 -140.15882726 529.27120461 -144.6875 528.5625 C-152.81648625 527.42437855 -160.89125522 527.41646278 -169.08203125 527.4296875 C-170.56174231 527.42901265 -172.04145326 527.42804111 -173.52116394 527.42678833 C-176.60485909 527.4253222 -179.68852507 527.42743237 -182.7722168 527.43212891 C-186.72088065 527.43785072 -190.66947688 527.4345249 -194.61813831 527.42855644 C-197.66617849 527.42494284 -200.71420261 527.42609267 -203.76224327 527.42868423 C-205.2186757 527.42934999 -206.67510959 527.42853738 -208.1315403 527.42620468 C-210.16296994 527.42366233 -212.19440471 527.42822499 -214.22583008 527.43310547 C-215.38004959 527.43390106 -216.5342691 527.43469666 -217.72346497 527.43551636 C-220.25831658 527.54411315 -222.25657216 527.94414799 -224.6875 528.5625 C-227.53105778 528.28327288 -230.254938 527.91989897 -233.0625 527.4375 C-233.805 527.33179688 -234.5475 527.22609375 -235.3125 527.1171875 C-240.79668853 526.18700711 -243.73552056 524.49000898 -247.6875 520.5625 C-250.13472894 515.66804211 -249.22430482 509.45519974 -247.78125 504.3671875 C-245.25851995 497.65607871 -242.15899893 491.26774356 -238.82421875 484.92578125 C-237.54301423 482.69918312 -237.54301423 482.69918312 -237.6875 480.5625 C-237.0275 480.5625 -236.3675 480.5625 -235.6875 480.5625 C-235.52894531 480.02882813 -235.37039063 479.49515625 -235.20703125 478.9453125 C-233.89527236 474.7563808 -232.40618756 470.82528387 -230.3984375 466.91796875 C-227.68196073 461.56719766 -225.08130799 456.16704513 -222.5 450.75 C-222.0258667 449.75734131 -221.5517334 448.76468262 -221.06323242 447.74194336 C-218.71244935 442.81814835 -216.36794486 437.89143362 -214.03125 432.9609375 C-210.2489849 424.9843486 -206.45539989 417.01750113 -202.5 409.125 C-202.01237183 408.151073 -202.01237183 408.151073 -201.51489258 407.1574707 C-200.00368021 404.14920521 -198.47421799 401.15335636 -196.91796875 398.16796875 C-192.99723534 390.56546312 -189.71912127 382.86131264 -186.60864258 374.89794922 C-184.68480499 369.9880036 -182.64527762 365.19721571 -180.375 360.4375 C-177.919858 355.2418887 -176.16623196 350.10547687 -174.6875 344.5625 C-171.05726482 331.42147325 -165.23743737 319.26497135 -159.41210938 306.9765625 C-151.90311072 290.91810263 -145.74175701 274.28101709 -139.57763672 257.67089844 C-138.55975137 254.93009893 -137.53594782 252.19155927 -136.51171875 249.453125 C-133.33437771 240.93182257 -130.21210741 232.39052525 -127.2578125 223.7890625 C-126.88654739 222.73795792 -126.88654739 222.73795792 -126.50778198 221.6656189 C-123.38154189 212.39050021 -122.70625455 203.35248489 -126.71484375 194.22265625 C-127.68024603 192.32277205 -128.68115179 190.44101666 -129.6875 188.5625 C-129.6875 187.9025 -129.6875 187.2425 -129.6875 186.5625 C-130.6775 186.2325 -131.6675 185.9025 -132.6875 185.5625 C-134.07324219 184.01367188 -134.07324219 184.01367188 -135.484375 182.03125 C-136.00708984 181.30679688 -136.52980469 180.58234375 -137.06835938 179.8359375 C-137.60267578 179.08570313 -138.13699219 178.33546875 -138.6875 177.5625 C-139.71189555 176.17586573 -140.73792917 174.79044006 -141.765625 173.40625 C-147.58843347 165.45828914 -153.16345756 157.44652806 -158.29980469 149.03662109 C-160.47368606 145.48025087 -162.71938139 142.05102909 -165.1875 138.6875 C-171.86785977 129.32547562 -177.63659023 118.90750507 -181.578125 108.10546875 C-183.98889479 102.57937321 -187.39122089 97.53081594 -190.5546875 92.41113281 C-192.82842869 88.7006224 -194.99784194 84.92901461 -197.1796875 81.1640625 C-198.11495961 79.55035467 -199.05649139 77.94023642 -200.0078125 76.3359375 C-202.6875 71.78234266 -202.6875 71.78234266 -202.6875 69.5625 C-203.3475 69.5625 -204.0075 69.5625 -204.6875 69.5625 C-205.79736328 68.0246582 -205.79736328 68.0246582 -207.0078125 65.86328125 C-207.68130737 64.67677979 -207.68130737 64.67677979 -208.3684082 63.46630859 C-208.8449585 62.61117676 -209.32150879 61.75604492 -209.8125 60.875 C-210.80726719 59.12294407 -211.80336707 57.37164415 -212.80078125 55.62109375 C-213.29143066 54.75726074 -213.78208008 53.89342773 -214.28759766 53.00341797 C-218.19135244 46.1966966 -222.34316565 39.53397204 -226.6875 33 C-227.1515625 32.29746094 -227.615625 31.59492188 -228.09375 30.87109375 C-229.31648479 29.09992645 -230.5991311 27.36999664 -231.90625 25.66015625 C-237.5602897 17.98266741 -237.5602897 17.98266741 -237.92578125 13.90234375 C-237.27896218 10.25286 -236.65958597 8.34291213 -233.71508789 5.97900391 C-229.46845746 3.99215206 -225.67635306 4.07593396 -221.0390625 4.05859375 C-219.64293228 4.04361595 -219.64293228 4.04361595 -218.21859741 4.02833557 C-216.25352409 4.01317815 -214.2883739 4.00610904 -212.32324219 4.0065918 C-209.32877364 4.00003563 -206.3376315 3.94554578 -203.34375 3.88867188 C-201.42969878 3.87986775 -199.51563189 3.87391491 -197.6015625 3.87109375 C-196.71280426 3.8495372 -195.82404602 3.82798065 -194.90835571 3.80577087 C-189.21877071 3.86797494 -186.14898227 4.97015794 -182.07162476 8.99375916 C-180.45887297 10.82162156 -179.0961667 12.59141197 -177.90625 14.72265625 C-177.46442383 15.50189453 -177.02259766 16.28113281 -176.56738281 17.08398438 C-176.11202148 17.92251953 -175.65666016 18.76105469 -175.1875 19.625 C-174.43871582 20.96594727 -174.43871582 20.96594727 -173.67480469 22.33398438 C-168.60938892 31.49820445 -163.829466 40.8230034 -159.11523438 50.17211914 C-155.53482681 57.21505473 -151.69242279 63.92166911 -147.49902344 70.61181641 C-145.17670906 74.39449721 -143.1313254 78.26276799 -141.1875 82.25 C-140.84203125 82.93771484 -140.4965625 83.62542969 -140.140625 84.33398438 C-137.6875 89.2937748 -137.6875 89.2937748 -137.6875 91.5625 C-137.0275 91.5625 -136.3675 91.5625 -135.6875 91.5625 C-135.275 92.42230469 -134.8625 93.28210938 -134.4375 94.16796875 C-128.93054825 105.4400106 -122.68601101 116.01337727 -115.3359375 126.20703125 C-114.22560402 127.79359781 -113.16832463 129.41847376 -112.1640625 131.07421875 C-108.92932013 136.38843835 -106.70703449 138.75663965 -100.6875 140.5625 C-94.8144031 135.94261365 -92.88979076 129.55439217 -90.25 122.75 C-89.77062988 121.53981201 -89.29125977 120.32962402 -88.79736328 119.08276367 C-87.41507299 115.58069635 -86.05079881 112.0719924 -84.6875 108.5625 C-84.01805849 106.87715432 -83.34764857 105.1921926 -82.67578125 103.5078125 C-80.16970315 97.1094841 -78.44510198 91.38806501 -77.6875 84.5625 C-77.02083333 82.89583333 -76.35416667 81.22916667 -75.6875 79.5625 C-75.55472656 78.37527344 -75.42195313 77.18804687 -75.28515625 75.96484375 C-74.65924707 70.56928612 -73.03469053 65.529494 -71.41601562 60.36132812 C-70.00765524 55.60246607 -69.45897209 51.42325595 -69.64453125 46.45678711 C-69.69925188 44.04441557 -69.21627593 41.91261526 -68.6875 39.5625 C-68.45755279 37.29177128 -68.25170264 35.02090257 -68.06640625 32.74609375 C-67.6506933 30.35038719 -66.77984711 28.72718787 -65.6875 26.5625 C-65.10251792 24.49091208 -64.56313676 22.40607192 -64.0625 20.3125 C-63.80210937 19.23484375 -63.54171875 18.1571875 -63.2734375 17.046875 C-63.08007812 16.22703125 -62.88671875 15.4071875 -62.6875 14.5625 C-62.0275 14.5625 -61.3675 14.5625 -60.6875 14.5625 C-60.0275 13.2425 -59.3675 11.9225 -58.6875 10.5625 C-58.0275 10.5625 -57.3675 10.5625 -56.6875 10.5625 C-56.605 9.964375 -56.5225 9.36625 -56.4375 8.75 C-55.06146049 4.73655144 -52.046974 3.73884574 -48.375 1.9375 C-33.68054598 -3.13268022 -15.20909697 -0.33746716 0 0 Z " fill="#FEFEFE" transform="translate(1816.6875,232.4375)"/>
<path d="M0 0 C0.99 0.33 1.98 0.66 3 1 C2.360625 1.556875 1.72125 2.11375 1.0625 2.6875 C-1.26296983 5.29484496 -1.83125175 6.54066081 -2 10 C-1.15020525 12.75256244 -1.15020525 12.75256244 0 15 C-2.125 13.5625 -2.125 13.5625 -4 11 C-3.78839662 6.74526061 -3.04489925 3.04489925 0 0 Z " fill="#EBEBEB" transform="translate(1583,238)"/>
<path d="M0 0 C2.0625 0.4375 2.0625 0.4375 4 1 C2.71034824 2.37562854 1.37310707 3.70766393 0 5 C-0.66 5 -1.32 5 -2 5 C-1.125 1.125 -1.125 1.125 0 0 Z " fill="#000000" transform="translate(713,203)"/>
<path d="M0 0 C0 0.99 0 1.98 0 3 C-2 4.6875 -2 4.6875 -4 6 C-2.84826645 3.53199953 -1.95216435 1.95216435 0 0 Z " fill="#000000" transform="translate(655,284)"/>
<path d="M0 0 C0 3 0 3 -1 5 C-1.66 4.67 -2.32 4.34 -3 4 C-2.01 2.68 -1.02 1.36 0 0 Z " fill="#000000" transform="translate(664,273)"/>
<path d="M0 0 C1.98 0.495 1.98 0.495 4 1 C2.35 1.33 0.7 1.66 -1 2 C-0.67 1.34 -0.34 0.68 0 0 Z " fill="#000000" transform="translate(737,181)"/>
<path d="M0 0 C0 0.99 0 1.98 0 3 C-0.66 2.67 -1.32 2.34 -2 2 C-1.34 1.34 -0.68 0.68 0 0 Z " fill="#000000" transform="translate(688,245)"/>
<path d="M0 0 C0.99 0 1.98 0 3 0 C3 0.66 3 1.32 3 2 C2.01 1.67 1.02 1.34 0 1 C0 0.67 0 0.34 0 0 Z " fill="#000000" transform="translate(720,196)"/>
<path d="M0 0 C0.66 0.33 1.32 0.66 2 1 C1.01 1 0.02 1 -1 1 C-0.67 0.67 -0.34 0.34 0 0 Z " fill="#000000" transform="translate(607,352)"/>
<path d="M0 0 C0 3 0 3 0 3 Z " fill="#000000" transform="translate(610,348)"/>
<path d="M0 0 C0 3 0 3 0 3 Z " fill="#000000" transform="translate(613,344)"/>
<path d="M0 0 C0 3 0 3 0 3 Z " fill="#000000" transform="translate(619,336)"/>
<path d="M0 0 C0 3 0 3 0 3 Z " fill="#000000" transform="translate(643,300)"/>
<path d="M0 0 C0 3 0 3 0 3 Z " fill="#000000" transform="translate(660,278)"/>
<path d="M0 0 C0 3 0 3 0 3 Z " fill="#000000" transform="translate(690,242)"/>
<path d="M0 0 C0 3 0 3 0 3 Z " fill="#000000" transform="translate(703,214)"/>
<path d="M0 0 C0.99 0.495 0.99 0.495 2 1 C1.67 1.66 1.34 2.32 1 3 C0.67 2.01 0.34 1.02 0 0 Z " fill="#000000" transform="translate(733,184)"/>
<path d="M0 0 C0.66 0 1.32 0 2 0 C1.67 0.66 1.34 1.32 1 2 C0.67 1.34 0.34 0.68 0 0 Z " fill="#FFAA00" transform="translate(532,579)"/>
<path d="M0 0 C0.33 0.66 0.66 1.32 1 2 C0.34 1.67 -0.32 1.34 -1 1 C-0.67 0.67 -0.34 0.34 0 0 Z " fill="#000000" transform="translate(604,355)"/>
<path d="M0 0 C0.99 0.495 0.99 0.495 2 1 C1.01 1.495 1.01 1.495 0 2 C0 1.34 0 0.68 0 0 Z " fill="#000000" transform="translate(681,254)"/>
<path d="M0 0 C0.99 0.495 0.99 0.495 2 1 C1.01 1.495 1.01 1.495 0 2 C0 1.34 0 0.68 0 0 Z " fill="#000000" transform="translate(706,213)"/>
<path d="M0 0 C0.66 0 1.32 0 2 0 C1.67 0.66 1.34 1.32 1 2 C0.67 1.34 0.34 0.68 0 0 Z " fill="#000000" transform="translate(716,201)"/>
<path d="M0 0 C2 1 2 1 2 1 Z " fill="#FFFFFF" transform="translate(174,344)"/>
<path d="" fill="#000000" transform="translate(0,0)"/>
<path d="M0 0 C2 1 2 1 2 1 Z " fill="#000000" transform="translate(692,235)"/>
<path d="" fill="#FF0000" transform="translate(0,0)"/>
<path d="" fill="#FF7100" transform="translate(0,0)"/>
<path d="" fill="#FFFFFF" transform="translate(0,0)"/>
<path d="" fill="#000000" transform="translate(0,0)"/>
<path d="" fill="#000000" transform="translate(0,0)"/>
<path d="" fill="#000000" transform="translate(0,0)"/>
<path d="" fill="#000000" transform="translate(0,0)"/>
<path d="" fill="#000000" transform="translate(0,0)"/>
<path d="" fill="#000000" transform="translate(0,0)"/>
<path d="" fill="#000000" transform="translate(0,0)"/>
<path d="" fill="#000000" transform="translate(0,0)"/>
<path d="" fill="#000000" transform="translate(0,0)"/>
<path d="" fill="#000000" transform="translate(0,0)"/>
<path d="" fill="#000000" transform="translate(0,0)"/>
<path d="" fill="#000000" transform="translate(0,0)"/>
<path d="" fill="#000000" transform="translate(0,0)"/>
<path d="" fill="#000000" transform="translate(0,0)"/>
<path d="" fill="#000000" transform="translate(0,0)"/>
<path d="" fill="#000000" transform="translate(0,0)"/>
<path d="" fill="#000000" transform="translate(0,0)"/>
<path d="" fill="#000000" transform="translate(0,0)"/>
<path d="" fill="#000000" transform="translate(0,0)"/>
<path d="" fill="#000000" transform="translate(0,0)"/>
<path d="" fill="#FFFFFF" transform="translate(0,0)"/>
<path d="" fill="#000000" transform="translate(0,0)"/>
<path d="" fill="#000000" transform="translate(0,0)"/>
<path d="" fill="#000000" transform="translate(0,0)"/>
<path d="" fill="#000000" transform="translate(0,0)"/>
<path d="" fill="#000000" transform="translate(0,0)"/>
<path d="" fill="#000000" transform="translate(0,0)"/>
<path d="" fill="#000000" transform="translate(0,0)"/>
<path d="" fill="#000000" transform="translate(0,0)"/>
<path d="" fill="#000000" transform="translate(0,0)"/>
<path d="" fill="#000000" transform="translate(0,0)"/>
<path d="" fill="#000000" transform="translate(0,0)"/>
<path d="" fill="#000000" transform="translate(0,0)"/>
<path d="" fill="#000000" transform="translate(0,0)"/>
<path d="" fill="#000000" transform="translate(0,0)"/>
<path d="" fill="#000000" transform="translate(0,0)"/>
<path d="" fill="#000000" transform="translate(0,0)"/>
<path d="" fill="#000000" transform="translate(0,0)"/>
<path d="" fill="#000000" transform="translate(0,0)"/>
<path d="" fill="#000000" transform="translate(0,0)"/>
<path d="" fill="#000000" transform="translate(0,0)"/>
<path d="" fill="#000000" transform="translate(0,0)"/>
<path d="" fill="#000000" transform="translate(0,0)"/>
<path d="" fill="#000000" transform="translate(0,0)"/>
<path d="" fill="#000000" transform="translate(0,0)"/>
<path d="" fill="#000000" transform="translate(0,0)"/>
<path d="" fill="#000000" transform="translate(0,0)"/>
<path d="" fill="#000000" transform="translate(0,0)"/>
<path d="" fill="#000000" transform="translate(0,0)"/>
<path d="" fill="#000000" transform="translate(0,0)"/>
<path d="" fill="#000000" transform="translate(0,0)"/>
<path d="" fill="#000000" transform="translate(0,0)"/>
<path d="" fill="#000000" transform="translate(0,0)"/>
<path d="" fill="#000000" transform="translate(0,0)"/>
<path d="" fill="#000000" transform="translate(0,0)"/>
<path d="" fill="#000000" transform="translate(0,0)"/>
<path d="" fill="#000000" transform="translate(0,0)"/>
<path d="" fill="#000000" transform="translate(0,0)"/>
<path d="" fill="#000000" transform="translate(0,0)"/>
<path d="" fill="#000000" transform="translate(0,0)"/>
<path d="" fill="#000000" transform="translate(0,0)"/>
<path d="" fill="#000000" transform="translate(0,0)"/>
<path d="" fill="#000000" transform="translate(0,0)"/>
<path d="" fill="#000000" transform="translate(0,0)"/>
</svg>
