<svg xmlns="http://www.w3.org/2000/svg" width="11" height="11" viewBox="0 0 11 11" fill="none">
  <path fill-rule="evenodd" clip-rule="evenodd" d="M3.5 5.83333C3.80942 5.83333 4.10617 5.95625 4.32496 6.17504C4.54375 6.39383 4.66667 6.69058 4.66667 7V9.33333C4.66667 9.64275 4.54375 9.9395 4.32496 10.1583C4.10617 10.3771 3.80942 10.5 3.5 10.5H1.16667C0.857247 10.5 0.560501 10.3771 0.341709 10.1583C0.122916 9.9395 0 9.64275 0 9.33333V7C0 6.69058 0.122916 6.39383 0.341709 6.17504C0.560501 5.95625 0.857247 5.83333 1.16667 5.83333H3.5ZM9.33333 5.83333C9.64275 5.83333 9.9395 5.95625 10.1583 6.17504C10.3771 6.39383 10.5 6.69058 10.5 7V9.33333C10.5 9.64275 10.3771 9.9395 10.1583 10.1583C9.9395 10.3771 9.64275 10.5 9.33333 10.5H7C6.69058 10.5 6.39383 10.3771 6.17504 10.1583C5.95625 9.9395 5.83333 9.64275 5.83333 9.33333V7C5.83333 6.69058 5.95625 6.39383 6.17504 6.17504C6.39383 5.95625 6.69058 5.83333 7 5.83333H9.33333ZM3.5 0C3.80942 0 4.10617 0.122916 4.32496 0.341709C4.54375 0.560501 4.66667 0.857247 4.66667 1.16667V3.5C4.66667 3.80942 4.54375 4.10617 4.32496 4.32496C4.10617 4.54375 3.80942 4.66667 3.5 4.66667H1.16667C0.857247 4.66667 0.560501 4.54375 0.341709 4.32496C0.122916 4.10617 0 3.80942 0 3.5V1.16667C0 0.857247 0.122916 0.560501 0.341709 0.341709C0.560501 0.122916 0.857247 0 1.16667 0H3.5ZM9.33333 0C9.64275 0 9.9395 0.122916 10.1583 0.341709C10.3771 0.560501 10.5 0.857247 10.5 1.16667V3.5C10.5 3.80942 10.3771 4.10617 10.1583 4.32496C9.9395 4.54375 9.64275 4.66667 9.33333 4.66667H7C6.69058 4.66667 6.39383 4.54375 6.17504 4.32496C5.95625 4.10617 5.83333 3.80942 5.83333 3.5V1.16667C5.83333 0.857247 5.95625 0.560501 6.17504 0.341709C6.39383 0.122916 6.69058 0 7 0H9.33333Z" fill="white"/>
</svg>