<svg xmlns="http://www.w3.org/2000/svg" width="43" height="29" viewBox="0 0 43 29" fill="none">
  <path fill-rule="evenodd" clip-rule="evenodd" d="M19.5 14.8333C19.8094 14.8333 20.1062 14.9562 20.325 15.175C20.5437 15.3938 20.6667 15.6906 20.6667 16V18.3333C20.6667 18.6428 20.5437 18.9395 20.325 19.1583C20.1062 19.3771 19.8094 19.5 19.5 19.5H17.1667C16.8572 19.5 16.5605 19.3771 16.3417 19.1583C16.1229 18.9395 16 18.6428 16 18.3333V16C16 15.6906 16.1229 15.3938 16.3417 15.175C16.5605 14.9562 16.8572 14.8333 17.1667 14.8333H19.5ZM25.3333 14.8333C25.6428 14.8333 25.9395 14.9562 26.1583 15.175C26.3771 15.3938 26.5 15.6906 26.5 16V18.3333C26.5 18.6428 26.3771 18.9395 26.1583 19.1583C25.9395 19.3771 25.6428 19.5 25.3333 19.5H23C22.6906 19.5 22.3938 19.3771 22.175 19.1583C21.9562 18.9395 21.8333 18.6428 21.8333 18.3333V16C21.8333 15.6906 21.9562 15.3938 22.175 15.175C22.3938 14.9562 22.6906 14.8333 23 14.8333H25.3333ZM19.5 9C19.8094 9 20.1062 9.12292 20.325 9.34171C20.5437 9.5605 20.6667 9.85725 20.6667 10.1667V12.5C20.6667 12.8094 20.5437 13.1062 20.325 13.325C20.1062 13.5437 19.8094 13.6667 19.5 13.6667H17.1667C16.8572 13.6667 16.5605 13.5437 16.3417 13.325C16.1229 13.1062 16 12.8094 16 12.5V10.1667C16 9.85725 16.1229 9.5605 16.3417 9.34171C16.5605 9.12292 16.8572 9 17.1667 9H19.5ZM25.3333 9C25.6428 9 25.9395 9.12292 26.1583 9.34171C26.3771 9.5605 26.5 9.85725 26.5 10.1667V12.5C26.5 12.8094 26.3771 13.1062 26.1583 13.325C25.9395 13.5437 25.6428 13.6667 25.3333 13.6667H23C22.6906 13.6667 22.3938 13.5437 22.175 13.325C21.9562 13.1062 21.8333 12.8094 21.8333 12.5V10.1667C21.8333 9.85725 21.9562 9.5605 22.175 9.34171C22.3938 9.12292 22.6906 9 23 9H25.3333Z" fill="white"/>
  <rect x="0.275" y="0.275" width="42.35" height="28.35" stroke="white" stroke-width="0.55"/>
</svg>