<svg xmlns="http://www.w3.org/2000/svg" width="43" height="29" viewBox="0 0 43 29" fill="none">
  <rect x="0.275" y="0.275" width="42.35" height="28.35" stroke="white" stroke-width="0.55"/>
  <path d="M15.6 9.60001C15.6 9.49393 15.6421 9.39218 15.7172 9.31717C15.7922 9.24216 15.8939 9.20001 16 9.20001H24.8C24.9061 9.20001 25.0078 9.24216 25.0828 9.31717C25.1579 9.39218 25.2 9.49393 25.2 9.60001C25.2 9.7061 25.1579 9.80784 25.0828 9.88285C25.0078 9.95787 24.9061 10 24.8 10H16C15.8939 10 15.7922 9.95787 15.7172 9.88285C15.6421 9.80784 15.6 9.7061 15.6 9.60001ZM15.6 17.6C15.6 17.4939 15.6421 17.3922 15.7172 17.3172C15.7922 17.2422 15.8939 17.2 16 17.2H24C24.1061 17.2 24.2078 17.2422 24.2828 17.3172C24.3579 17.3922 24.4 17.4939 24.4 17.6C24.4 17.7061 24.3579 17.8078 24.2828 17.8829C24.2078 17.9579 24.1061 18 24 18H16C15.8939 18 15.7922 17.9579 15.7172 17.8829C15.6421 17.8078 15.6 17.7061 15.6 17.6ZM16 13.2C15.8939 13.2 15.7922 13.2422 15.7172 13.3172C15.6421 13.3922 15.6 13.4939 15.6 13.6C15.6 13.7061 15.6421 13.8078 15.7172 13.8829C15.7922 13.9579 15.8939 14 16 14H28C28.1061 14 28.2078 13.9579 28.2829 13.8829C28.3579 13.8078 28.4 13.7061 28.4 13.6C28.4 13.4939 28.3579 13.3922 28.2829 13.3172C28.2078 13.2422 28.1061 13.2 28 13.2H16Z" fill="white"/>
</svg>